<svg width="109" height="108" viewBox="0 0 109 108" fill="none" xmlns="http://www.w3.org/2000/svg">
<path d="M47.7329 90.8551C47.3696 90.6751 47.2787 90.2251 47.4604 89.8651L62.8112 63.5851C62.9929 63.2251 63.4471 63.1351 63.8104 63.3151C64.1737 63.4951 64.2646 63.9451 64.0829 64.3051L48.7321 90.5851C48.5504 90.9451 48.0963 91.0351 47.7329 90.8551Z" fill="#EFD8B6"/>
<path d="M58.0879 60.8399C57.77 60.5699 57.6792 60.1649 57.7246 59.7599L58.4058 55.7999C58.4058 55.7999 58.315 55.5299 58.1788 55.4849C58.0425 55.4399 57.9062 55.5749 57.8608 55.7099L56.5892 60.8399C56.5892 60.8399 56.4983 61.0649 56.4983 61.1099C55.2721 64.1249 55.9533 67.5449 58.8146 69.2099L59.2233 68.4899C60.7675 65.9249 60.2225 62.7299 58.0425 60.7949L58.0879 60.8399Z" fill="#EFD8B6"/>
<path d="M68.8062 56.1598C68.7608 55.7548 68.8971 55.3948 69.0333 54.9898L70.6683 51.1648C70.6683 51.1648 70.8046 50.9848 70.7592 50.8498C70.6683 50.6698 70.4867 50.6698 70.3504 50.7598L67.6254 55.1698C67.6254 55.1698 67.4438 55.3048 67.3983 55.3048C64.5825 56.8798 62.9929 59.9398 64.1283 62.9548L64.9004 62.6848C67.6708 61.6498 69.3058 58.9048 68.8517 56.1598H68.8062Z" fill="#EFD8B6"/>
<path d="M53.3646 68.2648C53.0467 67.9948 52.9104 67.5448 52.9558 67.1398L53.6825 62.8648C53.6825 62.8648 53.5917 62.5498 53.4554 62.5498C53.3192 62.5498 53.1375 62.6398 53.1375 62.7748L51.775 68.3098L51.6842 68.5798C50.3671 71.8198 51.0937 75.4648 54.1821 77.3098L54.6362 76.5448C56.2712 73.7998 55.6808 70.3348 53.41 68.2648H53.3646Z" fill="#EFD8B6"/>
<path d="M48.9138 74.6999C48.5504 74.3849 48.4142 73.8899 48.4596 73.4399L49.2317 68.7149C49.2317 68.7149 49.1408 68.3999 48.9592 68.3549C48.7775 68.3099 48.6412 68.4449 48.5958 68.6249L47.0971 74.7449C47.0971 74.7449 47.0063 75.0149 47.0063 75.0599C45.5529 78.6599 46.3704 82.7099 49.7767 84.7349L50.2762 83.8799C52.0929 80.8199 51.4571 76.9949 48.9138 74.6999Z" fill="#EFD8B6"/>
<path d="M61.2671 81.765C61.7213 81.9 62.2208 81.765 62.5842 81.495L66.3538 78.435C66.3538 78.435 66.6717 78.345 66.8079 78.435C66.9442 78.525 66.8988 78.75 66.8079 78.885L62.1754 83.25C62.1754 83.25 61.9938 83.475 61.9483 83.475C59.5413 86.535 55.5446 87.84 52.1383 85.95L52.6379 85.095C54.3638 81.99 58.0879 80.64 61.3579 81.72L61.2671 81.765Z" fill="#EFD8B6"/>
<path d="M64.7188 74.7449C65.1275 74.8799 65.5817 74.7449 65.8996 74.5199L69.3058 71.7749C69.3058 71.7749 69.6238 71.6849 69.7146 71.7749C69.8054 71.8649 69.8054 72.0899 69.7146 72.1799L65.5363 76.0949C65.5363 76.0949 65.3546 76.2749 65.3546 76.3199C63.1746 79.0649 59.5867 80.2349 56.4983 78.5249L56.9525 77.7599C58.5421 74.9699 61.8575 73.7549 64.8096 74.6999L64.7188 74.7449Z" fill="#EFD8B6"/>
<path d="M68.8062 66.9599C69.1696 67.0949 69.6237 66.9599 69.8962 66.7349L73.03 64.1699C73.03 64.1699 73.3025 64.0799 73.3933 64.1699C73.4842 64.2599 73.4842 64.4399 73.3933 64.5299L69.5329 68.1749C69.5329 68.1749 69.3512 68.3549 69.3512 68.3999C67.3529 70.9649 63.9921 72.0449 61.1308 70.4699L61.5396 69.7499C62.9929 67.1399 66.0812 66.0149 68.8517 66.9149L68.8062 66.9599Z" fill="#EFD8B6"/>
<path d="M46.7337 68.8048C46.4158 68.8948 46.0979 68.8048 46.0525 68.5798L42.7371 54.2248C42.7371 54.2248 42.9187 53.8198 43.2367 53.7298C43.5546 53.6398 43.8725 53.7298 43.9179 53.9548L47.2333 68.3098C47.2333 68.3098 47.0517 68.7148 46.7337 68.8048Z" fill="#EFD8B6"/>
<path d="M38.4225 55.4399C38.1046 55.4399 37.7867 55.2599 37.605 54.9899L35.7429 52.2449C35.7429 52.2449 35.5612 52.1099 35.425 52.1999C35.2887 52.2899 35.2887 52.3799 35.3796 52.5149L37.5142 56.2949C37.5142 56.2949 37.605 56.4749 37.605 56.5199C38.5587 58.9949 40.9204 60.6599 43.5546 60.1199L43.4183 59.4449C42.9187 57.0599 40.7387 55.4399 38.3771 55.4849L38.4225 55.4399Z" fill="#EFD8B6"/>
<path d="M42.1921 46.7102C41.9196 46.5302 41.8288 46.2152 41.6925 45.8552L40.5117 42.6602C40.5117 42.6602 40.5117 42.4802 40.3754 42.4352C40.2392 42.3902 40.1029 42.4352 40.1029 42.6152L40.9658 46.8002C40.9658 46.8002 40.9658 46.9802 40.9204 47.0252C40.1029 49.5452 40.9204 52.2452 43.2821 53.4152L43.6 52.8302C44.69 50.6702 44.0996 48.1502 42.2829 46.7102H42.1921Z" fill="#EFD8B6"/>
<path d="M39.785 62.5501C39.4217 62.5501 39.1037 62.3701 38.9221 62.1001L36.9238 59.1301C36.9238 59.1301 36.6967 58.9951 36.6058 59.0851C36.515 59.1751 36.4696 59.3101 36.5604 59.4001L38.8767 63.4951C38.8767 63.4951 38.9675 63.6751 38.9675 63.7201C40.0121 66.3751 42.51 68.1751 45.3712 67.5901L45.235 66.8701C44.69 64.3051 42.3738 62.5501 39.8304 62.5951L39.785 62.5501Z" fill="#EFD8B6"/>
<path d="M50.2763 60.1651C50.5942 60.0301 50.8213 59.7151 50.8667 59.3551L51.3663 55.8451C51.3663 55.8451 51.5025 55.6201 51.6388 55.6651C51.775 55.7101 51.8658 55.8001 51.8204 55.9351L51.5479 60.6151V60.8401C51.775 63.6751 50.3217 66.4201 47.4604 67.0951L47.2788 66.3751C46.6429 63.8101 47.96 61.2451 50.2763 60.1651Z" fill="#EFD8B6"/>
<path d="M48.3233 53.19C48.6413 53.055 48.8229 52.785 48.8683 52.425L49.3225 49.14C49.3225 49.14 49.4588 48.96 49.5496 48.96C49.6404 48.96 49.7312 49.095 49.7312 49.185L49.4588 53.55C49.4588 53.55 49.4588 53.73 49.4588 53.775C49.6858 56.43 48.3233 58.95 45.6892 59.58L45.5075 58.905C44.9171 56.52 46.1433 54.135 48.2779 53.145L48.3233 53.19Z" fill="#EFD8B6"/>
<path d="M77.2083 96.4352C74.4833 96.4352 72.4396 95.8052 71.0771 94.5452C69.9417 93.5102 69.5329 92.2502 69.3967 91.2602C55.3629 100.935 42.7825 94.2302 38.6496 91.4402C38.4225 92.7452 37.7867 93.8252 36.7875 94.6352C32.8363 97.6952 24.0254 95.2652 22.5721 94.8152C15.8504 95.5352 11.99 94.6802 10.7637 92.1152C8.9925 88.4702 13.7158 83.1152 15.1692 81.5852C11.2633 66.2402 18.7571 53.2352 20.0742 51.1202C19.8471 49.2302 20.0742 46.2152 20.0742 46.0802C20.0742 45.5852 20.5737 45.1352 21.0733 45.2702C21.5729 45.2702 21.9363 45.7652 21.8908 46.2602C21.8908 46.2602 21.6183 49.6352 21.8908 51.2102C21.8908 51.4352 21.8908 51.6602 21.7546 51.8402C21.6637 51.9752 12.7621 65.7902 17.0313 81.6752C17.1221 81.9902 17.0313 82.3052 16.8042 82.5302C15.26 84.0602 11.1725 88.9202 12.3533 91.3952C13.1708 93.1052 16.8042 93.6902 22.5267 93.0602C22.6629 93.0602 22.7992 93.0602 22.89 93.0602C25.4333 93.8702 32.7 95.4902 35.6067 93.2402C36.5604 92.5202 36.9692 91.3952 36.8783 89.8202C36.8783 89.4602 37.06 89.1002 37.3779 88.9652C37.6958 88.7852 38.1046 88.8302 38.3771 89.1002C38.9675 89.5952 53.1829 101.52 69.7146 88.8752C70.0325 88.6502 70.4412 88.6052 70.7592 88.8302C71.0771 89.0102 71.2588 89.4152 71.1679 89.7752C71.1679 89.8652 70.7592 91.9352 72.3033 93.3752C73.6658 94.6352 76.9813 95.6702 84.7929 93.5552C84.8837 93.5552 85.02 93.5552 85.1108 93.5552C87.4725 93.7802 94.4212 93.8252 95.6929 91.2152C96.465 89.6402 95.1025 86.9402 91.7417 83.5202C91.56 83.2952 91.4692 83.0252 91.5146 82.7552C91.5146 82.5752 94.6938 63.9002 86.655 53.0102C86.5642 52.8752 86.4733 52.6952 86.4733 52.5152L85.8829 43.6052C85.8829 43.1102 86.2463 42.6602 86.7458 42.6602C86.7458 42.6602 86.7458 42.6602 86.7913 42.6602C87.2454 42.6602 87.6542 43.0202 87.6996 43.5152L88.2446 52.1552C95.92 62.8652 93.7854 79.6052 93.3312 82.6202C97.1462 86.6252 98.4179 89.7302 97.2825 92.0252C95.3296 96.0752 86.7004 95.4902 85.02 95.3552C81.9317 96.2102 79.2975 96.6152 77.0721 96.6152L77.2083 96.4352Z" fill="#EFD8B6"/>
<path d="M94.3758 50.1749C94.1033 50.1749 93.8308 50.0399 93.6492 49.8149C86.5188 41.0849 82.1587 43.5599 78.6617 45.5849L78.0713 45.8999C76.3 46.8899 69.8962 49.6349 61.7667 42.7499C56.1804 38.0249 40.2846 37.2149 32.2458 42.8849C23.8438 48.8249 13.5342 45.8099 13.08 45.6749C12.7167 45.5399 12.4442 45.2249 12.4442 44.8199C12.3533 35.6849 18.3029 28.7099 18.5754 28.4399C18.6208 28.3499 18.7117 28.3049 18.8025 28.2599C34.3804 19.4849 66.3083 26.9099 67.6708 27.2249C67.7617 27.2249 73.6658 28.9799 83.0671 28.3499C92.2412 27.6749 93.5129 31.3199 94.4667 33.9299C94.5575 34.2449 94.6938 34.5599 94.7846 34.8299C95.92 37.4399 95.3296 48.1049 95.2387 49.3199C95.2387 49.6799 94.9662 49.9949 94.6029 50.1299C94.5121 50.1299 94.4212 50.1299 94.3304 50.1299L94.3758 50.1749ZM84.2479 41.8499C86.8821 41.8499 89.925 43.0649 93.6038 46.9799C93.7854 42.6149 93.7854 36.9899 93.195 35.5499C93.0588 35.2349 92.9225 34.8749 92.8317 34.5599C92.0142 32.2649 91.0604 29.6549 83.2942 30.1949C73.575 30.8699 67.58 29.0699 67.3075 29.0249C67.035 28.9799 34.9708 21.5099 19.9379 29.8349C19.2112 30.7349 14.5788 36.7199 14.3517 44.2349C16.6679 44.7749 24.7521 46.1249 31.2467 41.5349C40.0121 35.3249 56.8162 36.2699 62.9929 41.4899C70.2142 47.6099 75.7096 45.3149 77.2083 44.4599L77.7533 44.1449C79.4792 43.1549 81.6138 41.9399 84.2025 41.9399L84.2479 41.8499Z" fill="#EFD8B6"/>
</svg>
