<svg width="109" height="108" viewBox="0 0 109 108" fill="none" xmlns="http://www.w3.org/2000/svg">
<path d="M47.1879 105.12C46.87 105.12 46.5521 104.94 46.4158 104.67C46.2342 104.4 46.2342 104.04 46.4158 103.725C46.4613 103.635 51.8204 94.8148 49.2317 86.5348C47.8237 81.9898 44.2358 78.3898 38.5587 75.8248C38.2862 75.6898 38.1046 75.4648 38.0592 75.1948C38.0138 74.9248 38.0592 74.6098 38.2408 74.4298C38.4679 74.1598 44.0996 67.9498 58.8146 75.6448C60.5404 74.1148 66.6717 68.3098 66.3083 62.6398C66.1267 59.8948 64.3554 57.4648 61.0854 55.5298C53.4554 50.9398 46.87 50.0398 41.42 49.7698C40.0575 49.6798 37.9683 49.6798 35.6975 49.6348C32.5183 49.5898 28.885 49.4998 26.705 49.3648C21.2096 48.9148 14.8967 48.0148 9.99166 44.3248C7.44833 42.4348 6.17666 40.1848 6.31291 37.6648C6.58541 31.3648 15.4871 25.8298 15.8504 25.6048C15.9412 25.5148 33.3358 11.7898 57.2704 17.0098C81.2504 22.2298 91.4238 47.6998 91.5146 47.9698C91.6054 48.1498 99.5533 67.6798 80.7508 79.6948C69.215 87.0748 66.0358 89.0998 65.1275 89.6848C64.6279 92.1148 61.2671 104.58 47.2333 105.12H47.1879ZM40.6933 74.8798C46.0525 77.5798 49.5496 81.3598 51.0029 86.0398C53.1829 93.0598 50.3217 100.17 48.8229 103.185C61.4033 101.7 63.4017 89.1448 63.4471 89.0098C63.4471 88.7398 63.6288 88.5148 63.8558 88.3798C63.8558 88.3798 64.6733 87.8848 79.7971 78.2098C97.3279 66.9598 89.925 48.8698 89.8796 48.6898C89.7888 48.4198 79.9333 23.8048 56.9071 18.8098C33.8354 13.7698 17.1221 26.9548 16.9404 27.0898C16.7587 27.2248 8.40208 32.4448 8.12958 37.7548C8.03875 39.6448 8.9925 41.3548 11.0817 42.8848C15.6233 46.2598 21.6183 47.1598 26.8412 47.5648C28.9758 47.7448 32.5637 47.7898 35.7429 47.8348C38.0137 47.8348 40.1483 47.9248 41.5108 47.9698C47.1879 48.2398 54.0458 49.1848 62.0392 53.9998C65.8542 56.2948 67.8979 59.1748 68.125 62.5498C68.6246 70.0648 59.9046 77.1298 59.5412 77.4448C59.2687 77.6698 58.86 77.7148 58.5421 77.5348C48.2779 71.9998 42.8279 73.6648 40.6933 74.8348V74.8798Z" fill="#EFD8B6"/>
<path d="M38.6042 49.23L37.06 48.33C47.0062 31.545 35.8338 19.17 35.3342 18.675L36.6512 17.46C36.6512 17.46 49.2771 31.275 38.6042 49.275V49.23Z" fill="#EFD8B6"/>
<path d="M52.0021 39.735C52.0021 39.735 51.7296 39.735 51.5933 39.645L41.8742 34.74C41.42 34.515 41.2383 33.975 41.4654 33.525C41.6925 33.075 42.2375 32.895 42.6917 33.12L51.0938 37.35V26.28L42.2829 29.88C41.8288 30.06 41.2838 29.88 41.1021 29.385C40.9204 28.89 41.1021 28.395 41.6017 28.215L51.6842 24.12C51.9567 23.985 52.2746 24.03 52.5471 24.21C52.8196 24.39 52.9558 24.66 52.9558 24.975V38.835C52.9558 39.15 52.7742 39.42 52.5017 39.6C52.3654 39.69 52.1838 39.735 52.0475 39.735H52.0021Z" fill="#EFD8B6"/>
<path d="M22.4812 36.0452C24.4126 36.0452 25.9783 34.4939 25.9783 32.5802C25.9783 30.6666 24.4126 29.1152 22.4812 29.1152C20.5499 29.1152 18.9842 30.6666 18.9842 32.5802C18.9842 34.4939 20.5499 36.0452 22.4812 36.0452Z" fill="#EFD8B6"/>
<path d="M56.0442 69.255C55.7717 69.255 55.5446 69.165 55.3629 68.94C55.1358 68.67 55.045 68.265 55.2267 67.905C59.4958 59.985 50.5487 51.12 50.4579 51.03C50.0946 50.67 50.0946 50.13 50.4579 49.77C50.8212 49.41 51.3662 49.41 51.7296 49.77C52.0929 50.13 60.1771 58.14 57.77 66.465C60.2225 64.98 63.765 61.875 62.8112 56.655C62.7204 56.16 63.0383 55.71 63.5379 55.62C64.0829 55.485 64.4917 55.845 64.5825 56.34C66.2629 65.385 56.4075 69.165 56.3167 69.21C56.2258 69.21 56.0896 69.255 55.9987 69.255H56.0442Z" fill="#EFD8B6"/>
</svg>
