<?xml version="1.0" encoding="UTF-8"?>
<svg version="1.1" xmlns="http://www.w3.org/2000/svg" width="128" height="128">
<path d="M0 0 C1.18803223 -0.01260864 2.37606445 -0.02521729 3.60009766 -0.03820801 C4.87933105 -0.03011108 6.15856445 -0.02201416 7.4765625 -0.01367188 C8.79317871 -0.01749878 10.10979492 -0.02132568 11.46630859 -0.02526855 C14.25051684 -0.03115911 17.03421099 -0.02261601 19.81835938 -0.00390625 C23.38305583 0.01888437 26.94654768 0.00575872 30.51119995 -0.01819611 C33.9164168 -0.03614518 37.32131144 -0.02356965 40.7265625 -0.01367188 C42.6454126 -0.02581726 42.6454126 -0.02581726 44.60302734 -0.03820801 C46.38507568 -0.01929504 46.38507568 -0.01929504 48.203125 0 C49.24807129 0.00318237 50.29301758 0.00636475 51.36962891 0.00964355 C54.87825623 0.66198486 56.04298453 1.62203337 58.1015625 4.51757812 C58.58258057 7.23846436 58.58258057 7.23846436 58.55566406 10.38769531 C58.55536194 11.56861755 58.55505981 12.74953979 58.55474854 13.96624756 C58.53410339 15.2361554 58.51345825 16.50606323 58.4921875 17.81445312 C58.48652771 19.11835999 58.48086792 20.42226685 58.47503662 21.76568604 C58.45979588 25.22490335 58.42052912 28.68344418 58.3762207 32.14239502 C58.33523337 35.67491505 58.31701832 39.20754487 58.296875 42.74023438 C58.25403218 49.66629275 58.18580065 56.59190292 58.1015625 63.51757812 C59.0503125 63.62070313 59.9990625 63.72382812 60.9765625 63.83007812 C64.1015625 64.51757812 64.1015625 64.51757812 66.1015625 67.51757812 C66.44201564 71.10310998 66.5439297 74.66830422 66.66015625 78.26757812 C66.84496797 81.4577277 66.84496797 81.4577277 68.44140625 83.46679688 C70.21557064 84.81624111 70.21557064 84.81624111 73.2265625 84.33007812 C74.1753125 84.06195313 75.1240625 83.79382813 76.1015625 83.51757812 C77.52424112 80.67222088 77.32128119 78.15539261 77.41796875 74.97851562 C77.45986328 73.6765625 77.50175781 72.37460938 77.54492188 71.03320312 C77.58473549 69.65299767 77.62444772 68.2727893 77.6640625 66.89257812 C77.70725657 65.50454398 77.75087115 64.11652285 77.79492188 62.72851562 C77.9012825 59.32497556 78.00330964 55.92136034 78.1015625 52.51757812 C77.28171875 52.56398437 76.461875 52.61039063 75.6171875 52.65820312 C74.53953125 52.69429687 73.461875 52.73039062 72.3515625 52.76757812 C71.28421875 52.81398437 70.216875 52.86039063 69.1171875 52.90820312 C66.1015625 52.51757812 66.1015625 52.51757812 63.74414062 50.68164062 C61.58942447 47.84284693 61.56621346 46.05248221 61.6015625 42.51757812 C61.58609375 40.97070312 61.58609375 40.97070312 61.5703125 39.39257812 C62.23448674 35.79822343 63.12636587 34.6141932 66.1015625 32.51757812 C68.8984375 32.12695312 68.8984375 32.12695312 71.8515625 32.26757812 C72.83640625 32.30367187 73.82125 32.33976562 74.8359375 32.37695312 C75.58359375 32.42335938 76.33125 32.46976563 77.1015625 32.51757812 C75.12711723 27.94517854 73.32881036 25.20764494 69.1015625 22.51757812 C66.77624239 21.66673334 64.52052801 21.08674648 62.1015625 20.51757812 C62.1015625 19.19757812 62.1015625 17.87757812 62.1015625 16.51757812 C68.5661728 16.06392126 71.79241268 16.73991383 77.1015625 20.51757812 C81.18617096 24.92465567 82.21993455 28.10781855 82.27856445 34.02709961 C82.29781731 35.71916786 82.29781731 35.71916786 82.31745911 37.44541931 C82.32484604 38.66419266 82.33223297 39.882966 82.33984375 41.13867188 C82.3479155 42.3901149 82.35598724 43.64155792 82.36430359 44.93092346 C82.37814159 47.57971906 82.38915961 50.22839029 82.39672852 52.87719727 C82.40780706 56.26804578 82.44223099 59.6582406 82.48190022 63.04885769 C82.51433675 66.28706426 82.51884163 69.52532759 82.52734375 72.76367188 C82.54485184 73.98042099 82.56235992 75.1971701 82.58039856 76.45079041 C82.57747299 77.58198807 82.57454742 78.71318573 82.5715332 79.87866211 C82.57739944 80.87332993 82.58326569 81.86799774 82.58930969 82.89280701 C81.966908 86.24221019 80.72094753 87.41171386 78.1015625 89.51757812 C73.65575903 90.99681819 69.95943548 90.83928049 65.6015625 89.20507812 C63.1015625 87.51757812 63.1015625 87.51757812 62.1015625 85.51757812 C61.89615902 83.37510575 61.73566995 81.2281921 61.6015625 79.08007812 C61.38525948 75.62309235 61.19807346 72.80711102 60.1015625 69.51757812 C59.4415625 69.18757813 58.7815625 68.85757813 58.1015625 68.51757812 C58.1015625 77.75757812 58.1015625 86.99757813 58.1015625 96.51757812 C60.0815625 96.84757812 62.0615625 97.17757812 64.1015625 97.51757812 C66.1015625 100.51757812 66.1015625 100.51757812 66.1015625 116.51757812 C38.3815625 116.51757812 10.6615625 116.51757812 -17.8984375 116.51757812 C-17.8984375 100.51757812 -17.8984375 100.51757812 -13.8984375 96.51757812 C-12.5784375 96.51757812 -11.2584375 96.51757812 -9.8984375 96.51757812 C-9.90731995 95.37387756 -9.91620239 94.230177 -9.925354 93.05181885 C-10.00639141 82.2809023 -10.06637968 71.51004749 -10.10568619 60.73889542 C-10.12657336 55.20112669 -10.15491193 49.6636038 -10.20019531 44.12597656 C-10.2436123 38.78323699 -10.26756609 33.44073408 -10.27794647 28.09783173 C-10.28534527 26.05802433 -10.29979318 24.01823008 -10.32135773 21.97852325 C-10.35033637 19.1243934 -10.3543958 16.27124516 -10.35253906 13.41699219 C-10.37411072 12.14816193 -10.37411072 12.14816193 -10.39611816 10.85369873 C-10.37011765 7.16734023 -10.29847581 5.12589586 -8.2387085 1.99371338 C-5.29389296 0.13625925 -3.47414052 0.01058046 0 0 Z M-5.8984375 8.51757812 C-6.27238327 11.48869372 -6.40531679 14.08272076 -6.35253906 17.04980469 C-6.35312317 17.908703 -6.35370728 18.76760132 -6.35430908 19.65252686 C-6.35152495 22.48816507 -6.32041767 25.32274882 -6.2890625 28.15820312 C-6.28160128 30.12546209 -6.27590778 32.0927285 -6.27191162 34.05999756 C-6.25664599 39.23543858 -6.21735599 44.4104299 -6.1730957 49.58569336 C-6.12496528 55.79642443 -6.10661343 62.00730594 -6.08328247 68.21817017 C-6.04450572 77.65161883 -5.96785817 87.08408096 -5.8984375 96.51757812 C13.9015625 96.51757812 33.7015625 96.51757812 54.1015625 96.51757812 C54.21788347 80.97463848 54.21788347 80.97463848 54.296875 65.43164062 C54.32079755 59.09328845 54.34911449 52.75516714 54.40332031 46.41699219 C54.44674378 41.30767027 54.47069243 36.19859588 54.48107147 31.0891037 C54.48846911 29.13860934 54.50291483 27.1881287 54.52448273 25.23773956 C54.55347022 22.50812885 54.55752046 19.77954426 54.55566406 17.04980469 C54.57004517 16.2413208 54.58442627 15.43283691 54.59924316 14.59985352 C54.57354189 11.11323563 54.383714 8.93128926 52.39593506 6.0166626 C49.67175216 4.23675102 48.17516187 4.01141243 44.9375 4 C43.90963379 3.98739136 42.88176758 3.97478271 41.82275391 3.96179199 C40.71851074 3.96988892 39.61426758 3.97798584 38.4765625 3.98632812 C37.33751465 3.98250122 36.1984668 3.97867432 35.02490234 3.97473145 C32.61750403 3.97201038 30.21007624 3.97938502 27.80273438 3.99609375 C24.11521568 4.01749887 20.42964551 3.9962968 16.7421875 3.97070312 C14.40364153 3.97334636 12.06509677 3.97847126 9.7265625 3.98632812 C8.07019775 3.97418274 8.07019775 3.97418274 6.38037109 3.96179199 C4.83857178 3.98070496 4.83857178 3.98070496 3.265625 4 C2.36279785 4.00318237 1.4599707 4.00636475 0.52978516 4.00964355 C-2.85961243 4.71863628 -3.94390146 5.65169464 -5.8984375 8.51757812 Z M67.5390625 38.14257812 C65.82256768 40.50064036 65.82256768 40.50064036 66.1640625 43.64257812 C66.86850937 46.80932744 66.86850937 46.80932744 70.1015625 48.51757812 C72.15865846 48.7581328 72.15865846 48.7581328 74.2890625 48.64257812 C75.5471875 48.60132813 76.8053125 48.56007813 78.1015625 48.51757812 C78.1015625 44.55757812 78.1015625 40.59757812 78.1015625 36.51757812 C72.50529143 36.01827523 72.50529143 36.01827523 67.5390625 38.14257812 Z M-12.31298828 102.04992676 C-14.61915872 105.15048859 -14.61915872 105.15048859 -13.8984375 112.51757812 C11.1815625 112.51757812 36.2615625 112.51757812 62.1015625 112.51757812 C62.82228372 105.15048859 62.82228372 105.15048859 60.51611328 102.04992676 C57.33599832 100.03172741 55.22830582 100.0100789 51.46875 100 C50.4826474 99.98948608 50.4826474 99.98948608 49.47662354 99.97875977 C47.30950333 99.96119381 45.14369534 99.97279577 42.9765625 99.98632812 C41.46728261 99.98363276 39.95800442 99.97974997 38.44873047 99.97473145 C35.28791751 99.96883836 32.12755716 99.97739262 28.96679688 99.99609375 C24.91787693 100.01888393 20.87001752 100.00575973 16.82113647 99.98180389 C13.70524117 99.96734035 10.58959676 99.97195429 7.47369385 99.98231506 C5.9809761 99.98498085 4.48823546 99.98171775 2.99554443 99.97239685 C0.90787546 99.96222117 -1.17808324 99.97774244 -3.265625 100 C-4.45269043 100.00318237 -5.63975586 100.00636475 -6.86279297 100.00964355 C-9.93541044 100.3213661 -9.93541044 100.3213661 -12.31298828 102.04992676 Z " fill="#EFD8B5" transform="translate(39.8984375,5.482421875)"/>
<path d="M0 0 C0.495 2.475 0.495 2.475 1 5 C0.38125 5.2475 -0.2375 5.495 -0.875 5.75 C-3.4420849 7.26004994 -3.77897213 8.32989237 -5 11 C-8.02558674 17.23248204 -11.13700906 22.10986383 -17 26 C-20.14930893 27.04976964 -22.38814456 27.10131595 -25.6875 27.0625 C-26.68136719 27.05347656 -27.67523438 27.04445313 -28.69921875 27.03515625 C-29.83810547 27.01775391 -29.83810547 27.01775391 -31 27 C-31.99 29.475 -31.99 29.475 -33 32 C-34.32 32 -35.64 32 -37 32 C-37.08174796 29.16607074 -37.14084985 26.33455181 -37.1875 23.5 C-37.21263672 22.70851563 -37.23777344 21.91703125 -37.26367188 21.1015625 C-37.34440563 14.53521748 -36.4268532 8.91425468 -32.1328125 3.7578125 C-31.47023438 3.21898437 -30.80765625 2.68015625 -30.125 2.125 C-29.46757813 1.57070313 -28.81015625 1.01640625 -28.1328125 0.4453125 C-19.55221232 -5.36937993 -9.11080326 -3.86518926 0 0 Z M-27 6 C-29.54798166 8.90153551 -29.54798166 8.90153551 -31 12 C-30.67 12.99 -30.34 13.98 -30 15 C-29.39671875 14.4225 -28.7934375 13.845 -28.171875 13.25 C-26.97304688 12.13625 -26.97304688 12.13625 -25.75 11 C-24.56664062 9.88625 -24.56664062 9.88625 -23.359375 8.75 C-21 7 -21 7 -17 7 C-17.54081975 10.79405854 -18.98836854 12.15349396 -21.9375 14.5 C-24.81946101 16.80138447 -26.56623041 18.57696893 -28 22 C-22.98637957 22.51159392 -19.74262434 21.98902736 -15.703125 18.83203125 C-12.86914685 15.78355475 -11.11283302 12.22566604 -9.26171875 8.5234375 C-8 6 -8 6 -6 3 C-13.53473323 0.48842226 -20.73761393 1.1434557 -27 6 Z M-32 15 C-31 17 -31 17 -31 17 Z " fill="#EFD9B6" transform="translate(82,58)"/>
<path d="M0 0 C14.52 0 29.04 0 44 0 C44 8.25 44 16.5 44 25 C29.48 25 14.96 25 0 25 C0 16.75 0 8.5 0 0 Z M4 4 C4 9.61 4 15.22 4 21 C15.88 21 27.76 21 40 21 C40 15.39 40 9.78 40 4 C28.12 4 16.24 4 4 4 Z " fill="#EED8B6" transform="translate(42,18)"/>
</svg>
