<svg width="155" height="142" viewBox="0 0 155 142" fill="none" xmlns="http://www.w3.org/2000/svg">
<path d="M68.4149 140.859C30.939 140.859 0.358032 109.83 0.358032 71.6226C0.358032 33.415 30.939 2.38672 68.4149 2.38672C105.891 2.38672 136.472 33.415 136.472 71.6226C136.472 109.83 105.972 140.859 68.4149 140.859ZM68.4149 5.6876C32.7236 5.6876 3.6027 35.2304 3.6027 71.6226C3.6027 108.015 32.6425 137.558 68.4149 137.558C104.187 137.558 133.227 108.015 133.227 71.6226C133.227 35.2304 104.187 5.6876 68.4149 5.6876Z" fill="#315748"/>
<path d="M142.718 81.2787L107.594 117.011C106.864 117.753 105.566 117.753 104.836 117.011L92.1011 104.055C91.371 103.312 90.0731 103.312 89.3431 104.055L82.4482 111.069C81.7181 111.812 81.7181 113.132 82.4482 113.875L96.5625 128.234L104.836 136.651C105.566 137.394 106.864 137.394 107.594 136.651L152.371 91.0988C153.101 90.3561 153.101 89.0358 152.371 88.2931L145.476 81.2787C144.746 80.536 143.448 80.536 142.718 81.2787Z" fill="#315748"/>
<path d="M106.215 138.96C105.323 138.96 104.35 138.63 103.701 137.887L81.3124 115.111C79.9335 113.708 79.9335 111.398 81.3124 109.995L88.2073 102.981C89.5863 101.578 91.9387 101.578 93.2366 102.981L105.972 115.937C105.972 115.937 106.296 116.102 106.459 115.937L141.582 80.2045C142.961 78.8016 145.313 78.8016 146.611 80.2045L153.506 87.2189C154.885 88.6217 154.885 90.9324 153.506 92.3352L108.73 137.887C108 138.63 107.108 138.96 106.215 138.96ZM90.5597 105.291L83.6648 112.306C83.6648 112.306 83.5026 112.636 83.6648 112.801L106.053 135.577C106.053 135.577 106.377 135.742 106.54 135.577L151.316 90.0246C151.316 90.0246 151.478 89.6945 151.316 89.5295L144.421 82.5151H143.935L108.811 118.247C107.432 119.65 105.161 119.65 103.782 118.247L91.0464 105.291H90.5597Z" fill="#315748"/>
<path d="M68.4149 122.292C67.5227 122.292 66.7926 121.549 66.7926 120.642V51.9834C66.7926 51.0757 67.5227 50.333 68.4149 50.333C69.3072 50.333 70.0373 51.0757 70.0373 51.9834V120.642C70.0373 121.549 69.3072 122.292 68.4149 122.292Z" fill="#315748"/>
<path d="M54.7873 51.9834C53.895 51.8183 53.2461 51.1582 52.9216 50.3329L49.7581 41.8332C49.7581 41.8332 49.3525 41.4206 49.028 41.5031C48.7036 41.5856 48.6225 41.9157 48.7036 42.2458L52.0294 53.7163C52.0294 53.7163 52.1105 54.294 52.1916 54.294C53.165 61.5559 58.2753 67.4975 65.5758 67.58V65.682C65.657 58.9977 61.0333 53.3037 54.7873 51.9009V51.9834Z" fill="#315748"/>
<path d="M69.9562 30.7753C69.3884 30.1151 69.2261 29.2074 69.0639 28.2171L67.9283 18.8921C67.9283 18.8921 67.9283 18.397 67.766 18.2319C67.4416 17.9844 67.036 18.2319 66.8737 18.4795L66.5493 30.1976C66.5493 30.1976 66.3059 30.6928 66.3059 30.7753C62.6557 36.9644 63.0613 44.7215 68.5772 49.4252L69.7128 48.0224C73.8498 42.906 73.8498 35.7266 69.9562 30.7753Z" fill="#315748"/>
<path d="M53.9761 71.7879C53.0839 71.6229 52.2727 70.8802 51.9482 69.9724L48.5413 60.8125C48.5413 60.8125 48.0546 60.3174 47.7302 60.4824C47.4057 60.6475 47.2435 60.9775 47.4057 61.3076L50.9748 73.6859C50.9748 73.6859 51.1371 74.2636 51.1371 74.3461C52.1916 82.1857 57.7075 88.5399 65.5758 88.6224V86.6419C65.6569 79.3799 60.7088 73.2733 53.9761 71.8704V71.7879Z" fill="#315748"/>
<path d="M52.6783 89.3655C51.6238 89.1179 50.8127 88.3752 50.4071 87.3849L46.6757 77.2347C46.6757 77.2347 46.189 76.6571 45.7834 76.8221C45.3778 76.9872 45.2156 77.3173 45.3778 77.7299L49.2714 91.4285C49.2714 91.4285 49.4337 92.0887 49.4337 92.1712C50.6504 100.836 56.7342 107.85 65.4137 108.015V105.787C65.4948 97.7827 59.9788 91.0159 52.5972 89.3655H52.6783Z" fill="#315748"/>
<path d="M84.1516 89.3655C85.2061 89.1179 86.0173 88.3752 86.4229 87.3849L90.1542 77.2347C90.1542 77.2347 90.6409 76.6571 91.0465 76.8221C91.4521 76.9872 91.6143 77.3173 91.4521 77.7299L87.5585 91.4285C87.5585 91.4285 87.3963 92.0887 87.3963 92.1712C86.1795 100.836 80.0958 107.85 71.4163 108.015V105.787C71.3352 97.7827 76.8511 91.0159 84.2327 89.3655H84.1516Z" fill="#315748"/>
<path d="M82.8537 71.7879C83.746 71.6229 84.5572 70.8802 84.8816 69.9724L88.2885 60.8125C88.2885 60.8125 88.7752 60.3174 89.0997 60.4824C89.4242 60.6475 89.5864 60.9775 89.4242 61.3076L85.855 73.6859C85.855 73.6859 85.6928 74.2636 85.6928 74.3461C84.6383 82.1857 79.1224 88.5399 71.254 88.6224V86.6419C71.1729 79.3799 76.121 73.2733 82.8537 71.8704V71.7879Z" fill="#315748"/>
<path d="M82.0425 51.9834C82.9348 51.8183 83.5837 51.1582 83.9082 50.3329L87.0717 41.8332C87.0717 41.8332 87.4773 41.4206 87.8018 41.5031C88.1263 41.5856 88.2074 41.9157 88.1263 42.2458L84.8005 53.7163C84.8005 53.7163 84.7194 54.294 84.6382 54.294C83.6648 61.5559 78.5545 67.4975 71.254 67.58V65.682C71.1729 58.9977 75.7965 53.3037 82.0425 51.9009V51.9834Z" fill="#315748"/>
</svg>
