<svg width="109" height="108" viewBox="0 0 109 108" fill="none" xmlns="http://www.w3.org/2000/svg">
<path d="M83.4304 88.5598C82.6583 88.5598 82.0679 88.0198 82.0679 87.2998V35.4148C82.0679 34.7398 82.7037 34.1548 83.4304 34.1548C84.1571 34.1548 84.7929 34.6948 84.7929 35.4148V87.2998C84.7929 87.9748 84.1571 88.5598 83.4304 88.5598Z" fill="#EFD8B6"/>
<path d="M70.5775 33.255C69.7146 33.075 69.0333 32.445 68.7154 31.635L65.5817 23.4C65.4908 23.13 65.1275 22.95 64.855 23.085C64.5825 23.22 64.4008 23.535 64.5371 23.805L67.8071 34.92C67.8071 34.92 67.9433 35.46 67.9433 35.505C68.9425 42.525 74.0292 48.24 81.2504 48.33V46.53C81.3413 40.005 76.7542 34.56 70.5775 33.255Z" fill="#EFD8B6"/>
<path d="M84.7475 17.9998C84.2933 17.4148 84.1571 16.6948 84.0208 15.8848L83.0217 8.18983C83.0217 8.18983 83.0217 7.73983 82.84 7.64983C82.5675 7.46983 82.2042 7.60483 82.1133 7.87483L81.8408 17.5498C81.8408 17.5498 81.6592 17.9548 81.6137 17.9998C78.5708 23.1298 78.8433 29.5198 83.5667 33.3898L84.5204 32.2198C88.0175 27.9898 88.0629 22.0948 84.7021 17.9998H84.7475Z" fill="#EFD8B6"/>
<path d="M68.8517 48.4201C67.8525 48.1951 67.0804 47.5201 66.7171 46.5751L63.1292 37.1251C62.9929 36.8101 62.6296 36.6301 62.3117 36.7651C61.9938 36.9001 61.8121 37.2601 61.9483 37.5751L65.6725 50.3101C65.6725 50.3101 65.8088 50.8951 65.8088 50.9851C66.9442 59.0401 72.7575 65.5651 81.0688 65.7001V63.6301C81.1596 56.2051 75.9367 49.9051 68.8517 48.4201Z" fill="#EFD8B6"/>
<path d="M98.0546 48.4201C99.0538 48.1951 99.8258 47.5201 100.189 46.5751L103.777 37.1251C103.913 36.8101 104.277 36.6301 104.595 36.7651C104.913 36.9001 105.094 37.2601 104.958 37.5751L101.234 50.3101C101.234 50.3101 101.098 50.8951 101.098 50.9851C99.9621 59.0401 94.1488 65.5651 85.8375 65.7001V63.6301C85.7467 56.2051 90.9696 49.9051 98.0546 48.4201Z" fill="#EFD8B6"/>
<path d="M68.8517 63.7199C67.8525 63.4949 67.0804 62.8199 66.7171 61.8749L63.1292 52.4249C62.9929 52.1099 62.6296 51.9299 62.3117 52.0649C61.9938 52.1999 61.8121 52.5599 61.9483 52.8749L65.6725 65.6099C65.6725 65.6099 65.8088 66.1949 65.8088 66.2849C66.9442 74.3399 72.7575 80.8649 81.0688 80.9999V78.9299C81.1596 71.5049 75.9367 65.2049 68.8517 63.7199Z" fill="#EFD8B6"/>
<path d="M98.0546 63.7199C99.0538 63.4949 99.8258 62.8199 100.189 61.8749L103.777 52.4249C103.913 52.1099 104.277 51.9299 104.595 52.0649C104.913 52.1999 105.094 52.5599 104.958 52.8749L101.234 65.6099C101.234 65.6099 101.098 66.1949 101.098 66.2849C99.9621 74.3399 94.1488 80.8649 85.8375 80.9999V78.9299C85.7467 71.5049 90.9696 65.2049 98.0546 63.7199Z" fill="#EFD8B6"/>
<path d="M96.3287 33.255C97.1917 33.075 97.8729 32.445 98.1908 31.635L101.325 23.4C101.415 23.13 101.779 22.95 102.051 23.085C102.324 23.22 102.505 23.535 102.369 23.805L99.0992 34.92C99.0992 34.92 98.9629 35.46 98.9629 35.505C97.9638 42.525 92.8771 48.24 85.6558 48.33V46.53C85.565 40.005 90.1521 34.56 96.3287 33.255Z" fill="#EFD8B6"/>
<path d="M63.22 83.9249H46.7792C29.7479 83.9249 15.8958 70.1999 15.8958 53.3249V42.5249C15.8958 39.7349 18.1667 37.4849 20.9825 37.4849H60.5858C61.0854 37.4849 61.4942 37.8899 61.4942 38.3849C61.4942 38.8799 61.0854 39.2849 60.5858 39.2849H20.9825C19.2113 39.2849 17.7579 40.7249 17.7579 42.4799V53.2799C17.7579 69.1649 30.7925 82.0799 46.8246 82.0799H63.2654C68.3975 82.0799 72.0308 81.8549 76.2546 80.6399C76.7542 80.5049 77.2538 80.7749 77.39 81.2699C77.5263 81.7649 77.2538 82.2599 76.7542 82.3949C72.3033 83.6549 68.4429 83.8799 63.2654 83.8799L63.22 83.9249Z" fill="#EFD8B6"/>
<path d="M71.7583 93.5999H44.145C41.6017 93.5999 39.5579 91.5749 39.5579 89.0549V82.3949H41.3746V89.0549C41.3746 90.5849 42.6008 91.7999 44.145 91.7999H71.7583C73.3025 91.7999 74.5288 90.5849 74.5288 89.0549V81.8999H76.3454V89.0549C76.3454 91.5749 74.3017 93.5999 71.7583 93.5999Z" fill="#EFD8B6"/>
<path d="M22.5267 38.8348C22.1633 38.8348 21.8 38.6098 21.6637 38.2498C21.6183 38.0698 20.165 34.2898 22.0271 32.0398C22.9808 30.8698 24.6158 30.3298 26.7958 30.5548C27.1592 29.7898 27.9312 28.6648 29.2483 27.9898C30.5654 27.3598 32.0642 27.3598 33.79 27.9898C34.5621 27.4498 36.1971 26.5048 38.1954 26.7298C39.8758 26.8648 41.42 27.7648 42.7825 29.3398C45.0079 28.3048 48.8683 27.7648 51.775 31.1848C53.0921 30.0148 55.8171 28.3048 59.9046 30.2848C60.4496 29.6998 61.4487 28.8898 62.7204 28.7548C63.8558 28.6198 64.9458 28.9798 65.945 29.8798C66.3083 30.1948 66.3537 30.7798 66.0358 31.1398C65.7179 31.4998 65.1275 31.5448 64.7642 31.2298C64.1283 30.6898 63.5833 30.4648 62.9475 30.5098C61.7667 30.6448 60.9037 31.9048 60.9037 31.9048C60.6312 32.3098 60.1317 32.4448 59.6775 32.1748C55.0904 29.5648 52.7288 32.6698 52.5017 33.0298C52.32 33.2548 52.0475 33.4348 51.7296 33.4348C51.4117 33.4348 51.1392 33.2998 50.9575 33.0298C47.8237 28.3498 43.1912 31.0948 43.0096 31.1848C42.6462 31.4098 42.1012 31.3198 41.8287 30.9598C40.6479 29.4298 39.3762 28.5748 38.0592 28.4848C36.1517 28.2598 34.6075 29.6548 34.5621 29.6548C34.2896 29.8798 33.9262 29.9698 33.6083 29.8348C32.2004 29.2498 31.0196 29.1598 30.0658 29.6098C28.7487 30.2398 28.2492 31.7698 28.2492 31.7698C28.1129 32.2198 27.6587 32.4448 27.25 32.3998C25.3879 32.1298 24.1162 32.3998 23.4804 33.1198C22.4812 34.3348 23.1171 36.7648 23.435 37.5748C23.6167 38.0248 23.3896 38.5648 22.89 38.7448C22.7992 38.7448 22.6629 38.7898 22.5721 38.7898L22.5267 38.8348Z" fill="#EFD8B6"/>
<path d="M29.3392 29.5651C29.1121 29.5651 28.885 29.4751 28.7033 29.2951L18.2575 18.9451C17.3038 18.0001 16.8042 16.7851 16.8042 15.4801C16.8042 14.1751 17.3038 12.9151 18.2575 12.0151C20.1196 10.1701 23.3896 10.1701 25.2971 12.0151L40.9204 27.7201C41.2838 28.0801 41.2838 28.6651 40.9204 28.9801C40.5571 29.3401 39.9667 29.3401 39.6488 28.9801L24.0254 13.2751C22.7992 12.0601 20.8008 12.0601 19.5746 13.2751C18.9842 13.8601 18.6663 14.6251 18.6663 15.4801C18.6663 16.3351 18.9842 17.1001 19.5746 17.6851L30.0204 28.0351C30.3838 28.3951 30.3838 28.9801 30.0204 29.2951C29.8388 29.4751 29.6117 29.5651 29.3846 29.5651H29.3392Z" fill="#EFD8B6"/>
</svg>
