<svg width="122" height="170" viewBox="0 0 122 170" fill="none" xmlns="http://www.w3.org/2000/svg">
<path d="M95.542 90.689C94.644 90.689 93.9092 89.9492 93.9092 89.0449V42.3507C93.9092 41.4464 94.644 40.7065 95.542 40.7065C96.4401 40.7065 97.1748 41.4464 97.1748 42.3507V89.0449C97.1748 89.9492 96.4401 90.689 95.542 90.689Z" fill="#315748"/>
<path d="M79.1321 37.0871C78.0707 36.8405 77.1727 36.1006 76.8461 35.0319L72.9273 24.5915C72.9273 24.5915 72.3558 24.016 72.0293 24.1804C71.7027 24.3448 71.4578 24.7559 71.6211 25.0847L75.7031 39.1423C75.7031 39.1423 75.8664 39.7999 75.8664 39.8822C77.091 48.7606 83.4591 55.9949 92.4396 56.1593V53.8575C92.5213 45.6367 86.8064 38.649 79.1321 37.0049V37.0871Z" fill="#315748"/>
<path d="M97.1749 15.8793C96.5217 15.0572 96.3584 13.9885 96.1135 12.7554L94.644 1.32846C94.644 1.32846 94.644 0.670799 94.3991 0.506383C93.9908 0.177551 93.501 0.424176 93.3377 0.835216L92.9295 15.2216C92.9295 15.2216 92.6029 15.7971 92.6029 15.8793C88.1127 23.5246 88.6025 32.9786 95.4604 38.6509L96.8483 36.9245C101.992 30.6767 101.992 21.8805 97.0932 15.8793H97.1749Z" fill="#315748"/>
<path d="M78.1524 54.3529C77.0094 54.1062 76.1114 53.2842 75.7032 52.1333L71.5395 40.8708C71.5395 40.8708 70.968 40.2953 70.5598 40.4597C70.1516 40.6241 69.9883 41.0352 70.1516 41.4462L74.5602 56.5725C74.5602 56.5725 74.7235 57.3124 74.7235 57.3946C76.0297 66.9307 82.8876 74.7405 92.5213 74.9049V72.4386C92.6846 63.5602 86.4798 56.1614 78.2341 54.3529H78.1524Z" fill="#315748"/>
<path d="M112.932 54.3529C114.075 54.1062 114.973 53.2842 115.381 52.1333L119.545 40.8708C119.545 40.8708 120.116 40.2953 120.524 40.4597C120.933 40.6241 121.096 41.0352 120.933 41.4462L116.524 56.5725C116.524 56.5725 116.361 57.3124 116.361 57.3946C115.054 66.9307 108.196 74.7405 98.5628 74.9049V72.4386C98.3995 63.5602 104.604 56.1614 112.85 54.3529H112.932Z" fill="#315748"/>
<path d="M111.952 37.0871C113.013 36.8405 113.911 36.1006 114.238 35.0319L118.157 24.5915C118.157 24.5915 118.728 24.016 119.055 24.1804C119.381 24.3448 119.626 24.7559 119.463 25.0847L115.381 39.1423C115.381 39.1423 115.218 39.7999 115.218 39.8822C113.993 48.7606 107.625 55.9949 98.6444 56.1593V53.8575C98.5628 45.6367 104.278 38.649 111.952 37.0049V37.0871Z" fill="#315748"/>
<path d="M53.4967 168.621C25.0039 168.621 1.89935 145.274 1.89935 116.665C1.89935 88.057 25.0855 64.71 53.4967 64.71C81.9079 64.71 105.094 88.057 105.094 116.665C105.094 145.274 81.9079 168.621 53.4967 168.621ZM53.4967 67.9161C26.8 67.9161 5.16501 89.7834 5.16501 116.583C5.16501 143.383 26.8816 165.25 53.4967 165.25C80.1118 165.25 101.828 143.383 101.828 116.583C101.828 89.7834 80.1118 67.9161 53.4967 67.9161Z" fill="#315748"/>
<path d="M53.4967 167.47C37.9032 167.47 25.1671 144.698 25.1671 116.665C25.1671 88.6325 37.9032 65.8608 53.4967 65.8608C69.0902 65.8608 81.8263 88.6325 81.8263 116.665C81.8263 144.698 69.0902 167.47 53.4967 167.47ZM53.4967 69.067C39.6993 69.067 28.4328 90.3588 28.4328 116.583C28.4328 142.808 39.6993 164.099 53.4967 164.099C67.2941 164.099 78.5606 142.808 78.5606 116.583C78.5606 90.3588 67.2941 69.067 53.4967 69.067Z" fill="#315748"/>
<path d="M96.685 89.9487H10.3083V93.237H96.685V89.9487Z" fill="#315748"/>
<path d="M103.951 115.186H3.94037V118.474H103.951V115.186Z" fill="#315748"/>
<path d="M97.0932 139.848H10.0635V143.136H97.0932V139.848Z" fill="#315748"/>
<path d="M55.1295 66.2729H51.8638V166.485H55.1295V66.2729Z" fill="#315748"/>
</svg>
