<svg width="109" height="108" viewBox="0 0 109 108" fill="none" xmlns="http://www.w3.org/2000/svg">
<path d="M42.1013 20.0251C41.8742 20.0251 41.6017 19.9351 41.42 19.7101C41.2383 19.5301 37.4233 15.2101 38.9675 11.8801C39.9667 9.72014 42.7825 8.64014 47.5513 8.64014C47.7783 8.64014 48.0508 8.64014 48.2779 8.64014C48.7775 8.64014 49.1862 9.04514 49.1862 9.54014C49.1862 10.0351 48.7775 10.4401 48.2779 10.4401C48.0963 10.4401 47.8237 10.4401 47.5967 10.4401C43.7362 10.4401 41.3292 11.2051 40.6479 12.6001C39.785 14.4901 41.9196 17.5051 42.8279 18.4951C43.1458 18.8551 43.1458 19.4401 42.7371 19.7551C42.5554 19.8901 42.3283 19.9801 42.1467 19.9801L42.1013 20.0251Z" fill="#EFD8B6"/>
<path d="M54.5 20.0252C54.5 20.0252 54.0913 19.9352 53.9096 19.8002C53.5463 19.4852 53.5008 18.9002 53.8188 18.5402C54.6817 17.5502 56.7708 14.5352 55.8625 12.6452C55.1358 11.1152 52.4563 10.3502 48.2779 10.4852C47.8238 10.4852 47.3696 10.1252 47.3242 9.58516C47.3242 9.09016 47.6875 8.68516 48.2325 8.64016C53.4554 8.55016 56.4529 9.58516 57.4975 11.8352C59.0871 15.1652 55.3629 19.4852 55.1813 19.6652C54.9996 19.8902 54.7725 19.9802 54.5 19.9802V20.0252Z" fill="#EFD8B6"/>
<path d="M55.9079 26.6401H39.8304C37.5596 26.6401 35.7429 24.7951 35.7429 22.5901C35.7429 20.3851 37.605 18.4951 39.8304 18.4951H55.9079C58.1788 18.4951 59.9954 20.3401 59.9954 22.5451C59.9954 24.7501 58.1333 26.6401 55.9079 26.6401ZM39.8304 20.2951C38.5588 20.2951 37.5596 21.2851 37.5596 22.5451C37.5596 23.8051 38.5588 24.8401 39.8304 24.8401H55.9079C57.1796 24.8401 58.1788 23.8501 58.1788 22.5901C58.1788 21.3301 57.1796 20.2951 55.9079 20.2951H39.8304Z" fill="#EFD8B6"/>
<path d="M47.8237 88.8298C44.7354 88.7398 40.6025 88.1548 40.4208 88.1098C31.8371 85.4098 29.3392 80.8198 24.9337 69.3448C19.9833 56.4748 25.2517 50.0848 31.61 44.1448C38.15 38.0248 42.1467 25.8748 42.1921 25.7398C42.3283 25.2448 42.8733 25.0198 43.3275 25.1548C43.7817 25.2898 44.0542 25.8298 43.9179 26.2798C43.7362 26.7748 39.7396 39.0148 32.8362 45.4048C25.5696 52.1998 22.4358 57.9148 26.5687 68.6698C31.2012 80.6398 33.3358 83.9698 40.7842 86.3098C40.7842 86.3098 44.9171 86.8498 47.8237 86.9398C48.3233 86.9398 48.7321 87.3898 48.6867 87.8848C48.6867 88.3798 48.2779 88.7398 47.7783 88.7398L47.8237 88.8298Z" fill="#EFD8B6"/>
<path d="M48.2779 88.83C47.7783 88.83 47.3696 88.425 47.3696 87.975C47.3696 87.48 47.7329 87.075 48.2325 87.03C51.23 86.94 56.1804 86.355 56.2258 86.355C63.4925 84.06 65.6271 80.73 70.2596 68.715C74.3925 57.96 71.2587 52.245 63.9921 45.45C57.1342 39.015 53.0921 26.82 52.9104 26.325C52.7742 25.83 53.0012 25.335 53.5008 25.2C53.955 25.02 54.5 25.29 54.6362 25.785C54.6362 25.92 58.6783 38.07 65.2183 44.19C71.5767 50.13 76.8904 56.52 71.8946 69.39C67.4892 80.865 64.9912 85.455 56.5437 88.11C56.1804 88.155 51.3208 88.74 48.2325 88.83H48.2779Z" fill="#EFD8B6"/>
<path d="M73.2117 61.4249C72.9392 61.4249 72.6212 61.2899 72.4396 61.0199C72.1671 60.6149 72.2579 60.0299 72.6667 59.7599C75.8913 57.5999 77.7987 54.0449 77.7987 50.2199C77.7987 43.8749 72.5758 38.6999 66.1721 38.6999C64.2192 38.6999 62.2663 39.1949 60.5858 40.0949C60.1317 40.3199 59.5867 40.1849 59.3596 39.7349C59.1325 39.2849 59.2687 38.7449 59.7229 38.5199C61.6758 37.4399 63.9012 36.8999 66.1721 36.8999C73.575 36.8999 79.6154 42.8849 79.6154 50.2199C79.6154 54.6749 77.39 58.7699 73.7112 61.2899C73.5296 61.3799 73.3933 61.4249 73.2117 61.4249Z" fill="#EFD8B6"/>
<path d="M74.0292 40.68C74.0292 40.68 73.7113 40.68 73.575 40.545C73.1208 40.32 72.9846 39.735 73.2117 39.33C74.7558 36.63 74.8921 34.38 74.8012 33.12C72.2579 34.695 71.4858 38.385 71.4858 38.43C71.395 38.925 70.8954 39.195 70.4413 39.15C69.9417 39.06 69.6238 38.565 69.7146 38.115C69.7146 37.89 70.8954 32.4 75.2554 30.96L76.1638 30.645L76.4362 31.545C76.4362 31.545 77.5717 35.46 74.8467 40.23C74.665 40.5 74.3925 40.68 74.0746 40.68H74.0292Z" fill="#EFD8B6"/>
<path d="M78.3892 44.9552C78.1167 44.9552 77.8896 44.8652 77.7079 44.6402C77.39 44.2802 77.4354 43.6952 77.8442 43.3802C80.2512 41.4002 81.205 39.3302 81.5683 38.1152C78.6162 38.7002 76.5725 41.8952 76.5271 41.8952C76.2546 42.3002 75.7096 42.4352 75.2554 42.1652C74.8467 41.8952 74.7104 41.3552 74.9829 40.9052C75.1192 40.7252 78.0258 36.1802 82.4312 36.1802C82.5221 36.1802 82.6129 36.1802 82.7037 36.1802H83.6575L83.6121 37.1252C83.6121 37.3052 83.2942 41.1752 79.025 44.6852C78.8433 44.8202 78.6617 44.9102 78.4346 44.9102L78.3892 44.9552Z" fill="#EFD8B6"/>
<path d="M79.0704 50.9399C78.6163 50.9399 78.2075 50.5799 78.1621 50.0849C78.1621 49.5899 78.5254 49.1399 79.025 49.1399C82.1588 48.9599 84.1571 47.8349 85.1563 47.0699C82.4313 45.8099 78.8888 47.2049 78.8433 47.2049C78.3892 47.3849 77.8442 47.2049 77.6625 46.7099C77.4808 46.2599 77.6625 45.7199 78.1621 45.5399C78.3892 45.4499 83.6121 43.4249 87.2454 46.2599L87.9721 46.8449L87.3817 47.5649C87.3817 47.5649 84.7021 50.6699 79.1613 50.9849C79.1613 50.9849 79.1613 50.9849 79.1158 50.9849L79.0704 50.9399Z" fill="#EFD8B6"/>
<path d="M83.1579 57.465C81.75 57.465 80.0242 57.24 78.0712 56.475C77.6171 56.295 77.39 55.755 77.5717 55.305C77.7533 54.855 78.2983 54.63 78.7525 54.81C81.6592 55.935 83.9754 55.755 85.2017 55.485C83.2487 53.19 79.4337 52.965 79.3883 52.965C78.8887 52.965 78.48 52.515 78.5254 52.02C78.5254 51.525 78.9342 51.165 79.4337 51.165C79.6608 51.165 85.2925 51.48 87.3817 55.575L87.7904 56.385L86.9275 56.79C86.9275 56.79 85.3833 57.465 83.0671 57.465H83.1579Z" fill="#EFD8B6"/>
<path d="M82.2042 64.6649C81.4321 64.6649 77.8442 64.4849 74.2108 61.0649C73.8475 60.7049 73.8475 60.1649 74.2108 59.8049C74.5742 59.4449 75.1192 59.4449 75.4825 59.8049C77.7533 61.9199 79.9333 62.5949 81.205 62.8199C80.2513 59.9849 76.845 58.3649 76.7996 58.3199C76.3454 58.0949 76.1638 57.5549 76.3454 57.1049C76.5725 56.6549 77.1175 56.4749 77.5717 56.6549C77.7988 56.7449 82.8854 59.1299 83.2488 63.6749L83.3396 64.6199H82.3858C82.3858 64.6199 82.3404 64.6649 82.2496 64.6649H82.2042Z" fill="#EFD8B6"/>
<path d="M74.8012 70.8748L74.0292 70.5148C74.0292 70.5148 72.5758 69.8848 71.1225 67.8148C70.85 67.4098 70.9408 66.8698 71.3496 66.5548C71.7583 66.2848 72.3487 66.3748 72.6212 66.7798C73.1208 67.4998 73.575 67.9498 73.9383 68.2648C74.6196 65.3398 72.485 62.1898 72.4396 62.1448C72.1671 61.7398 72.2579 61.1998 72.6667 60.8848C73.0754 60.6148 73.6204 60.7048 73.9383 61.1098C74.0746 61.2898 77.2083 65.9248 75.1646 70.0198L74.8012 70.7848V70.8748Z" fill="#EFD8B6"/>
<path d="M68.4883 38.4751C68.4883 38.4751 68.3975 38.4751 68.3067 38.4751C67.8071 38.3851 67.4892 37.9351 67.58 37.4401C68.125 34.3801 67.5346 32.1751 67.035 31.0501C65.1275 33.3451 65.6271 37.1251 65.6271 37.1701C65.6725 37.6651 65.3546 38.1151 64.855 38.2051C64.3554 38.2051 63.9012 37.9351 63.8104 37.4401C63.8104 37.2151 63.0383 31.6801 66.6717 28.8901L67.3983 28.3501L67.9433 29.1151C67.9433 29.1151 70.305 32.4451 69.3058 37.8451C69.215 38.2951 68.8517 38.5651 68.3975 38.5651L68.4883 38.4751Z" fill="#EFD8B6"/>
<path d="M62.4933 38.3848C62.13 38.3848 61.7667 38.1148 61.6304 37.7548C60.7221 34.7848 59.1325 33.1198 58.1333 32.3098C58.0879 32.6248 58.0425 32.9398 58.0425 33.2548C58.0425 33.7498 57.6337 34.1548 57.1342 34.1548C56.6346 34.1548 56.2258 33.7498 56.2258 33.2098C56.2258 32.2198 56.4529 31.3198 56.8617 30.5098L57.2704 29.6548L58.0879 30.0598C58.0879 30.0598 61.7212 31.9498 63.4017 37.1698C63.5379 37.6648 63.2654 38.1598 62.8112 38.2948C62.7204 38.2948 62.6296 38.2948 62.5387 38.2948L62.4933 38.3848Z" fill="#EFD8B6"/>
<path d="M47.8692 71.1899C45.1442 71.1899 42.6917 69.7949 41.3746 67.4999C40.0575 65.2049 40.0121 62.4149 41.3746 60.0749L47.0971 50.2199C47.415 49.6799 48.3688 49.6799 48.6867 50.2199L54.4092 60.0749C55.7717 62.4149 55.7717 65.1599 54.4092 67.4999C53.0467 69.8399 50.6396 71.1899 47.9146 71.1899H47.8692ZM47.8692 52.5149L42.9642 60.9749C41.9196 62.7299 41.965 64.8449 42.9642 66.5999C43.9633 68.3549 45.8254 69.3899 47.8692 69.3899C49.9129 69.3899 51.775 68.3549 52.8196 66.5999C53.8642 64.8449 53.8642 62.7299 52.8196 60.9749L47.9146 52.5149H47.8692Z" fill="#EFD8B6"/>
</svg>
