<?xml version="1.0" encoding="UTF-8"?>
<svg version="1.1" xmlns="http://www.w3.org/2000/svg" width="128" height="128">
<path d="M0 0 C2.24566003 -0.0171905 4.48983863 -0.06107399 6.73510742 -0.10522461 C8.16803932 -0.11535399 9.60098372 -0.12386933 11.03393555 -0.13061523 C12.98650269 -0.15248901 12.98650269 -0.15248901 14.97851562 -0.17480469 C19.02540993 0.37276483 20.6477625 1.37164352 23.4519043 4.29516602 C24.6178784 8.30320199 24.88430931 10.34799313 23.1394043 14.17016602 C21.4519043 16.29516602 21.4519043 16.29516602 19.4519043 17.29516602 C19.39335254 20.81592833 19.3581237 24.33656362 19.3269043 27.85766602 C19.30176758 29.34363281 19.30176758 29.34363281 19.27612305 30.85961914 C19.20893604 40.97126302 21.80126973 47.39514847 27.2019043 55.79516602 C28.37460731 57.65532135 29.54645073 59.51601882 30.7175293 61.37719727 C31.32790039 62.34222168 31.93827148 63.30724609 32.56713867 64.30151367 C35.73706759 69.33644482 38.84826196 74.40669297 41.9519043 79.48266602 C42.52650391 80.41336914 43.10110352 81.34407227 43.69311523 82.30297852 C54.93636929 100.68784203 54.93636929 100.68784203 53.4519043 110.29516602 C51.67868201 115.71914008 48.09851033 119.14685336 43.4519043 122.29516602 C39.343304 124.29930374 35.95046989 124.55781452 31.40185547 124.58569336 C30.7117186 124.59241058 30.02158173 124.59912781 29.31053162 124.60604858 C27.0385713 124.62498001 24.76690724 124.62895044 22.49487305 124.63110352 C20.90692526 124.63753546 19.31897866 124.64426411 17.73103333 124.65127563 C14.40480809 124.6632367 11.07868662 124.66695773 7.75244141 124.66577148 C3.50561689 124.66556851 -0.74053687 124.69285351 -4.98720264 124.7273159 C-8.26705435 124.7496364 -11.54674603 124.75360744 -14.82666588 124.75255203 C-16.3914591 124.7549009 -17.95625722 124.76368399 -19.52097511 124.77921677 C-36.29514034 124.93012663 -36.29514034 124.93012663 -43.60668945 118.47875977 C-44.06172852 117.90254883 -44.51676758 117.32633789 -44.9855957 116.73266602 C-45.45868164 116.15387695 -45.93176758 115.57508789 -46.41918945 114.97875977 C-49.55254449 110.30583236 -49.23516037 104.66548783 -48.5480957 99.29516602 C-47.09360541 95.29209982 -44.8300379 91.87810622 -42.5480957 88.29516602 C-41.61229366 86.77829699 -40.6789058 85.25993719 -39.74731445 83.74047852 C-37.56084943 80.1846121 -35.36371104 76.63567176 -33.1574707 73.09204102 C-32.57288086 72.15295898 -31.98829102 71.21387695 -31.38598633 70.24633789 C-30.12482884 68.22124866 -28.86307894 66.19652829 -27.60083008 64.17211914 C-25.6590529 61.05106285 -23.72768347 57.92376931 -21.7980957 54.79516602 C-21.1896582 53.82224609 -20.5812207 52.84932617 -19.9543457 51.84692383 C-19.11129883 50.47552246 -19.11129883 50.47552246 -18.2512207 49.07641602 C-17.50340332 47.87082031 -17.50340332 47.87082031 -16.74047852 46.64086914 C-13.82583469 40.90706531 -14.29698864 34.51520941 -14.2355957 28.23266602 C-14.2065918 27.23944336 -14.17758789 26.2462207 -14.14770508 25.22290039 C-13.94649916 19.59922418 -13.94649916 19.59922418 -16.50512695 14.82641602 C-17.17930664 14.32110352 -17.85348633 13.81579102 -18.5480957 13.29516602 C-19.5480957 9.85766602 -19.5480957 9.85766602 -19.5480957 6.29516602 C-14.69501943 -1.40281704 -8.2198011 0.04386998 0 0 Z M-12.5480957 7.29516602 C-12.2180957 8.61516602 -11.8880957 9.93516602 -11.5480957 11.29516602 C-9.8980957 11.62516602 -8.2480957 11.95516602 -6.5480957 12.29516602 C-6.8780957 15.59516602 -7.2080957 18.89516602 -7.5480957 22.29516602 C-5.5680957 22.29516602 -3.5880957 22.29516602 -1.5480957 22.29516602 C-1.8780957 23.94516602 -2.2080957 25.59516602 -2.5480957 27.29516602 C-4.1980957 27.62516602 -5.8480957 27.95516602 -7.5480957 28.29516602 C-7.5480957 29.61516602 -7.5480957 30.93516602 -7.5480957 32.29516602 C-5.8980957 32.62516602 -4.2480957 32.95516602 -2.5480957 33.29516602 C-2.2180957 34.94516602 -1.8880957 36.59516602 -1.5480957 38.29516602 C-3.5280957 38.29516602 -5.5080957 38.29516602 -7.5480957 38.29516602 C-7.66024414 38.92680664 -7.77239258 39.55844727 -7.88793945 40.20922852 C-9.6348976 48.13333932 -13.17771767 53.92394015 -17.68481445 60.52172852 C-19.64103977 62.8766399 -19.64103977 62.8766399 -19.5480957 64.29516602 C-5.0280957 64.29516602 9.4919043 64.29516602 24.4519043 64.29516602 C21.8119043 59.67516602 19.1719043 55.05516602 16.4519043 50.29516602 C13.0769043 42.42016602 13.0769043 42.42016602 12.94018555 36.92407227 C12.90473633 35.77358398 12.86928711 34.6230957 12.83276367 33.43774414 C12.79892578 31.66560547 12.79892578 31.66560547 12.7644043 29.85766602 C12.73024414 28.64916992 12.69608398 27.44067383 12.66088867 26.19555664 C12.57880595 23.22885253 12.50952415 20.26242926 12.4519043 17.29516602 C9.1519043 17.29516602 5.8519043 17.29516602 2.4519043 17.29516602 C2.4519043 15.31516602 2.4519043 13.33516602 2.4519043 11.29516602 C7.0719043 11.29516602 11.6919043 11.29516602 16.4519043 11.29516602 C16.7819043 9.97516602 17.1119043 8.65516602 17.4519043 7.29516602 C14.75925069 5.94883921 12.65076181 6.16553966 9.6394043 6.16235352 C7.90303711 6.16041992 7.90303711 6.16041992 6.1315918 6.15844727 C4.31014648 6.16424805 4.31014648 6.16424805 2.4519043 6.17016602 C1.23760742 6.16629883 0.02331055 6.16243164 -1.2277832 6.15844727 C-2.38536133 6.15973633 -3.54293945 6.16102539 -4.7355957 6.16235352 C-6.33467773 6.16404541 -6.33467773 6.16404541 -7.96606445 6.16577148 C-10.53491711 6.12112404 -10.53491711 6.12112404 -12.5480957 7.29516602 Z M-33.72616577 81.12130737 C-35.66657085 85.06793369 -37.27755404 89.02252173 -38.56396484 93.22729492 C-39.5480957 96.29516602 -39.5480957 96.29516602 -41.17089844 99.43725586 C-43.01478171 103.26361601 -42.82195769 106.34776654 -41.5480957 110.29516602 C-38.90402713 114.49456905 -36.72513712 116.68344998 -31.89575195 117.92443848 C-26.35438663 118.79949705 -20.70667026 118.57972442 -15.1105957 118.56079102 C-13.70247328 118.5621405 -12.29435131 118.56408339 -10.88623047 118.56658936 C-7.9443719 118.5695273 -5.00263533 118.56528603 -2.06079102 118.5559082 C1.69489759 118.54451438 5.45030026 118.55108101 9.20597839 118.56305313 C12.11090213 118.57030781 15.01575897 118.5679673 17.92068481 118.56279755 C19.30486078 118.56147101 20.68904299 118.56307355 22.07321167 118.56775665 C34.11059421 119.01730973 34.11059421 119.01730973 44.3269043 113.67016602 C46.77308395 109.78505715 48.06919904 106.84871682 47.4519043 102.29516602 C46.4451215 99.61041189 45.18124363 97.38106879 43.62915039 94.96655273 C41.86239551 92.13725976 40.49946342 89.23128855 39.13720703 86.18823242 C34.30160637 75.93559473 34.30160637 75.93559473 25.74182129 68.99264526 C18.13521241 66.87676648 10.46629498 67.05994264 2.6394043 67.35766602 C0.87851974 67.37648834 0.87851974 67.37648834 -0.91793823 67.39569092 C-14.55219336 67.62297346 -26.63051797 68.20297405 -33.72616577 81.12130737 Z " fill="#EFD8B6" transform="translate(61.548095703125,1.704833984375)"/>
</svg>
