<svg width="131" height="176" viewBox="0 0 131 176" fill="none" xmlns="http://www.w3.org/2000/svg">
<path d="M65.5826 162.208C64.4254 162.208 63.5162 161.305 63.5162 160.156V41.8311C63.5162 40.6816 64.4254 39.7783 65.5826 39.7783C66.7398 39.7783 67.649 40.6816 67.649 41.8311V160.238C67.649 161.387 66.7398 162.29 65.5826 162.29V162.208Z" fill="#315748"/>
<path d="M15.9898 171.979C23.0654 171.979 28.8013 166.281 28.8013 159.252C28.8013 152.223 23.0654 146.524 15.9898 146.524C8.91418 146.524 3.17828 152.223 3.17828 159.252C3.17828 166.281 8.91418 171.979 15.9898 171.979Z" fill="#315748"/>
<path d="M65.5826 171.979C72.6582 171.979 78.3941 166.281 78.3941 159.252C78.3941 152.223 72.6582 146.524 65.5826 146.524C58.507 146.524 52.7711 152.223 52.7711 159.252C52.7711 166.281 58.507 171.979 65.5826 171.979Z" fill="#315748"/>
<path d="M115.01 171.979C122.086 171.979 127.822 166.281 127.822 159.252C127.822 152.223 122.086 146.524 115.01 146.524C107.935 146.524 102.199 152.223 102.199 159.252C102.199 166.281 107.935 171.979 115.01 171.979Z" fill="#315748"/>
<path d="M15.9898 149.316C14.8327 149.316 13.9235 148.412 13.9235 147.263V133.878C13.9235 130.019 16.1551 122.547 24.8339 122.383C33.6779 122.218 73.2696 122.383 73.6828 122.383C74.84 122.383 75.7492 123.286 75.7492 124.435C75.7492 125.585 74.84 126.488 73.6828 126.488C73.6828 126.488 33.7606 126.324 24.9165 126.488C18.2215 126.57 18.0562 133.139 18.0562 133.878V147.263C18.0562 148.412 17.147 149.316 15.9898 149.316Z" fill="#315748"/>
<path d="M115.01 149.316C113.853 149.316 112.944 148.412 112.944 147.263V133.878C112.944 133.139 112.779 126.652 106.084 126.488C97.2395 126.324 57.7305 126.488 57.3172 126.488C56.1601 126.488 55.2509 125.585 55.2509 124.435C55.2509 123.286 56.1601 122.383 57.3172 122.383C57.7305 122.383 97.3221 122.218 106.166 122.383C114.845 122.547 117.159 129.937 117.077 133.878V147.263C117.077 148.412 116.167 149.316 115.01 149.316Z" fill="#315748"/>
<path d="M15.9898 149.316C14.8327 149.316 13.9235 148.412 13.9235 147.263V133.879C13.9235 132.729 14.8327 131.826 15.9898 131.826C17.147 131.826 18.0562 132.729 18.0562 133.879V147.263C18.0562 148.412 17.147 149.316 15.9898 149.316Z" fill="#315748"/>
<path d="M49.3823 40.8466C48.3904 40.6003 47.6465 39.9434 47.2333 38.958L43.5965 29.433C43.5965 29.433 43.1005 28.9403 42.7699 29.0224C42.4393 29.1045 42.274 29.5151 42.3566 29.8435L46.0761 42.6531C46.0761 42.6531 46.2414 43.2279 46.2414 43.31C47.3986 51.3571 53.1844 57.9261 61.5325 58.0903V56.0375C61.6152 48.5652 56.4079 42.2426 49.2996 40.7645L49.3823 40.8466Z" fill="#315748"/>
<path d="M66.9051 17.7726C66.2439 17.0336 66.0786 16.0482 65.9133 14.8987L64.5908 4.55247C64.5908 4.55247 64.5908 3.97768 64.3428 3.81345C63.9296 3.56711 63.5163 3.81345 63.351 4.1419L63.0204 17.1978C63.0204 17.1978 62.7724 17.7726 62.6897 17.8547C58.557 24.7522 58.9703 33.374 65.3347 38.5471L66.6572 36.987C71.3685 31.3212 71.4511 23.3563 66.9051 17.8547V17.7726Z" fill="#315748"/>
<path d="M48.4731 58.0063C47.3986 57.76 46.572 57.021 46.1587 56.0356L42.274 45.8536C42.274 45.8536 41.6954 45.2789 41.3648 45.4431C41.0341 45.6073 40.7862 46.0179 40.9515 46.3463L45.0016 60.0591C45.0016 60.0591 45.1669 60.716 45.1669 60.7982C46.4067 69.5021 52.6885 76.5638 61.6152 76.6459V74.4289C61.6978 66.3818 56.0773 59.5665 48.4731 58.0063Z" fill="#315748"/>
<path d="M46.9854 75.7426C45.8282 75.4962 44.8364 74.6751 44.4231 73.5255L40.125 62.194C40.125 62.194 39.5465 61.6192 39.1332 61.7834C38.7199 61.9476 38.5546 62.3582 38.7199 62.7688L43.1833 78.0417C43.1833 78.0417 43.3486 78.7807 43.3486 78.8629C44.7537 88.47 51.6967 96.3529 61.5326 96.5171V94.0537C61.6979 85.1034 55.3335 77.6312 46.9027 75.8247L46.9854 75.7426Z" fill="#315748"/>
<path d="M84.0147 75.7426C85.1719 75.4962 86.1637 74.6751 86.577 73.5255L90.875 62.194C90.875 62.194 91.4536 61.6192 91.8669 61.7834C92.2802 61.9476 92.4455 62.3582 92.2802 62.7688L87.8168 78.0417C87.8168 78.0417 87.6515 78.7807 87.6515 78.8629C86.2464 88.47 79.3034 96.3529 69.4674 96.5171V94.0537C69.3021 85.1034 75.6666 77.6312 84.0973 75.8247L84.0147 75.7426Z" fill="#315748"/>
<path d="M82.5269 58.0063C83.6014 57.76 84.428 57.021 84.8413 56.0356L88.726 45.8536C88.726 45.8536 89.3046 45.2789 89.6352 45.4431C89.9658 45.6073 90.2138 46.0179 90.0485 46.3463L85.9984 60.0591C85.9984 60.0591 85.8331 60.716 85.8331 60.7982C84.5933 69.5021 78.3115 76.5638 69.3848 76.6459V74.4289C69.3022 66.3818 74.9227 59.5665 82.5269 58.0063Z" fill="#315748"/>
<path d="M81.6177 40.8466C82.6095 40.6003 83.3534 39.9434 83.7667 38.958L87.4035 29.433C87.4035 29.433 87.8994 28.9403 88.23 29.0224C88.5607 29.1045 88.726 29.5151 88.6433 29.8435L84.9238 42.6531C84.9238 42.6531 84.7585 43.2279 84.7585 43.31C83.6014 51.3571 77.8155 57.9261 69.4674 58.0903V56.0375C69.3847 48.5652 74.592 42.2426 81.7003 40.7645L81.6177 40.8466Z" fill="#315748"/>
</svg>
