<?xml version="1.0" encoding="UTF-8"?>
<svg version="1.1" xmlns="http://www.w3.org/2000/svg" width="128" height="128">
<path d="M0 0 C1.44190956 -0.01429802 1.44190956 -0.01429802 2.91294861 -0.02888489 C4.45372826 -0.02751778 4.45372826 -0.02751778 6.02563477 -0.02612305 C7.09193619 -0.03040817 8.15823761 -0.0346933 9.2568512 -0.03910828 C11.50862926 -0.04484318 13.76042585 -0.04535804 16.01220703 -0.04101562 C19.45125017 -0.0378563 22.88943232 -0.06132391 26.32836914 -0.08666992 C28.51912327 -0.0889431 30.7098797 -0.08964632 32.90063477 -0.08862305 C33.92579697 -0.09783279 34.95095917 -0.10704254 36.00718689 -0.11653137 C41.43442487 -0.08147927 45.35708744 0.18563936 50.02954102 3.2746582 C54.37041324 7.91490093 54.15159604 12.51679259 54.12719727 18.6652832 C54.12578232 19.36989685 54.12436737 20.0745105 54.12290955 20.80047607 C54.11733035 23.04191404 54.10478175 25.28325063 54.09204102 27.5246582 C54.08702332 29.04809426 54.08246089 30.57153188 54.07836914 32.0949707 C54.06736776 35.82156592 54.05011748 39.54810216 54.02954102 43.2746582 C56.00954102 43.2746582 57.98954102 43.2746582 60.02954102 43.2746582 C60.02954102 46.2446582 60.02954102 49.2146582 60.02954102 52.2746582 C61.10204102 52.3571582 62.17454102 52.4396582 63.27954102 52.5246582 C67.54175424 53.37710085 68.56417045 53.76861357 71.02954102 57.2746582 C71.62244357 60.50228437 71.58674731 63.69179746 71.56860352 66.96606445 C71.58039642 67.90771957 71.59218933 68.84937469 71.6043396 69.81956482 C71.63962866 72.8255976 71.64877322 75.83093511 71.65454102 78.8371582 C71.67087266 81.84674328 71.69288327 84.85601673 71.72616577 87.86546326 C71.7458247 89.73733994 71.75512753 91.6093597 71.75308228 93.4813385 C71.7600412 94.32909348 71.76700012 95.17684845 71.77416992 96.05029297 C71.77542877 96.7954567 71.77668762 97.54062042 71.77798462 98.30836487 C71.92253295 100.59582701 71.92253295 100.59582701 74.02954102 103.2746582 C76.39659015 103.67704666 76.39659015 103.67704666 79.02954102 103.5246582 C79.91641602 103.50918945 80.80329102 103.4937207 81.71704102 103.4777832 C84.05473512 103.41507576 84.05473512 103.41507576 86.02954102 102.2746582 C86.35954102 81.1546582 86.68954102 60.0346582 87.02954102 38.2746582 C85.37954102 37.9446582 83.72954102 37.6146582 82.02954102 37.2746582 C79.66017537 34.90529256 80.79621065 29.01897396 80.77954102 25.8371582 C80.75891602 24.85682617 80.73829102 23.87649414 80.71704102 22.86645508 C80.70930664 21.46169922 80.70930664 21.46169922 80.70141602 20.02856445 C80.69207031 19.16561768 80.68272461 18.3026709 80.6730957 17.41357422 C80.79072266 16.70773193 80.90834961 16.00188965 81.02954102 15.2746582 C84.02954102 13.2746582 84.02954102 13.2746582 87.02954102 13.2746582 C87.02954102 11.6246582 87.02954102 9.9746582 87.02954102 8.2746582 C86.22516602 8.0271582 85.42079102 7.7796582 84.59204102 7.5246582 C82.02954102 6.2746582 82.02954102 6.2746582 81.21704102 4.1496582 C81.15516602 3.5309082 81.09329102 2.9121582 81.02954102 2.2746582 C81.68954102 1.9446582 82.34954102 1.6146582 83.02954102 1.2746582 C86.07634362 2.44932909 88.65403545 4.03474086 91.02954102 6.2746582 C91.52954102 10.0871582 91.52954102 10.0871582 91.02954102 13.2746582 C92.20516602 13.4293457 92.20516602 13.4293457 93.40454102 13.5871582 C96.02954102 14.2746582 96.02954102 14.2746582 98.02954102 17.2746582 C98.45115616 20.26081774 98.35388385 23.26184075 98.34204102 26.2746582 C98.3581543 27.09450195 98.37426758 27.9143457 98.39086914 28.7590332 C98.39151367 29.54793945 98.3921582 30.3368457 98.39282227 31.1496582 C98.39580322 31.86895508 98.39878418 32.58825195 98.40185547 33.3293457 C97.91355481 35.88067663 97.12619057 36.7668486 95.02954102 38.2746582 C93.70954102 38.2746582 92.38954102 38.2746582 91.02954102 38.2746582 C91.03953377 39.48282196 91.03953377 39.48282196 91.04972839 40.71539307 C91.10985118 48.30765934 91.15552122 55.89981011 91.18497753 63.49225235 C91.20063046 67.39557301 91.22186162 71.29869689 91.25585938 75.2019043 C91.28846659 78.96906212 91.30639684 82.73603072 91.31417274 86.50331879 C91.31971385 87.94024382 91.33053437 89.37715856 91.34673119 90.81400299 C91.3685209 92.82715242 91.36976655 94.84049245 91.37011719 96.85375977 C91.38010994 98.57251312 91.38010994 98.57251312 91.39030457 100.32598877 C90.98891459 103.60671477 90.35228356 104.95891386 88.02954102 107.2746582 C83.1298733 108.90788077 78.14245988 108.78526009 73.02954102 108.2746582 C69.35023374 106.18250309 68.35904762 105.26317801 67.02954102 101.2746582 C66.91631276 99.84822681 66.85358625 98.41743331 66.82421875 96.98681641 C66.79430092 95.69581779 66.79430092 95.69581779 66.76377869 94.3787384 C66.74706619 93.45364975 66.7303537 92.5285611 66.71313477 91.57543945 C66.69235367 90.62525436 66.67157257 89.67506927 66.65016174 88.6960907 C66.58476049 85.65985364 66.52582498 82.62352989 66.46704102 79.5871582 C66.42384684 77.52920652 66.38023226 75.47126361 66.33618164 73.41333008 C66.22908871 68.36719504 66.12779456 63.32097278 66.02954102 58.2746582 C64.04954102 57.6146582 62.06954102 56.9546582 60.02954102 56.2746582 C60.04114258 56.91274414 60.05274414 57.55083008 60.06469727 58.20825195 C60.0737207 59.03454102 60.08274414 59.86083008 60.09204102 60.7121582 C60.10364258 61.53586914 60.11524414 62.35958008 60.12719727 63.20825195 C60.02954102 65.2746582 60.02954102 65.2746582 59.02954102 66.2746582 C57.37954102 66.2746582 55.72954102 66.2746582 54.02954102 66.2746582 C54.02954102 77.1646582 54.02954102 88.0546582 54.02954102 99.2746582 C56.00954102 99.6046582 57.98954102 99.9346582 60.02954102 100.2746582 C63.60566166 104.21139605 63.42510364 108.46635694 63.27954102 113.5246582 C63.27438477 114.2568457 63.26922852 114.9890332 63.26391602 115.7434082 C63.18426376 121.11993546 63.18426376 121.11993546 62.02954102 122.2746582 C59.3875404 122.37509091 56.77165511 122.4108267 54.12915039 122.40405273 C52.88776054 122.40668121 52.88776054 122.40668121 51.62129211 122.40936279 C48.8719374 122.41378213 46.12264644 122.41084303 43.37329102 122.4074707 C41.47139473 122.40814372 39.56949853 122.40911372 37.66760254 122.41036987 C33.67609846 122.41184696 29.68461672 122.40969195 25.69311523 122.4050293 C20.56463595 122.399332 15.43620899 122.40261095 10.30773163 122.40860176 C6.37880048 122.41220709 2.44988183 122.41106892 -1.47904968 122.40847397 C-3.3705801 122.40780462 -5.26211163 122.40863339 -7.15364075 122.41095352 C-9.79248075 122.41347959 -12.43123479 122.40964012 -15.07006836 122.40405273 C-16.25453804 122.40708908 -16.25453804 122.40708908 -17.4629364 122.41018677 C-22.85619647 122.38892072 -22.85619647 122.38892072 -23.97045898 121.2746582 C-24.09759853 118.657949 -24.15566923 116.07935108 -24.15795898 113.4621582 C-24.17020508 112.73706055 -24.18245117 112.01196289 -24.19506836 111.26489258 C-24.21403954 104.35305943 -24.21403954 104.35305943 -21.97045898 101.2746582 C-18.74254344 99.1227145 -17.68645089 99.07379378 -13.97045898 99.2746582 C-13.98378265 97.56243828 -13.98378265 97.56243828 -13.99737549 95.81562805 C-14.07845233 85.05973934 -14.13842016 74.3039126 -14.17770767 63.54778767 C-14.19858482 58.01789428 -14.22690519 52.48824753 -14.2722168 46.95849609 C-14.31566941 41.62223574 -14.33959513 36.28621266 -14.34996796 30.94978905 C-14.35736033 28.91359916 -14.37179587 26.8774223 -14.39337921 24.84133339 C-14.42240515 21.9898024 -14.42641529 19.13925255 -14.42456055 16.28759766 C-14.43894165 15.44530609 -14.45332275 14.60301453 -14.46813965 13.73519897 C-14.44083891 9.8576688 -14.2467264 7.74774392 -12.25457764 4.33634949 C-8.43689693 0.89043435 -5.06204907 0.02772306 0 0 Z M-8.97045898 7.2746582 C-10.60715657 10.54805337 -10.09948174 14.16686627 -10.08398438 17.76342773 C-10.0841304 18.64154114 -10.08427643 19.51965454 -10.08442688 20.42437744 C-10.08372856 23.3354334 -10.07593994 26.24642588 -10.06811523 29.1574707 C-10.06625077 31.17243413 -10.064827 33.18739802 -10.06382751 35.20236206 C-10.0600046 40.5124435 -10.05017622 45.8224977 -10.03912354 51.13256836 C-10.0271087 57.50019264 -10.0225061 63.86782601 -10.01667023 70.23545837 C-10.00696437 79.91521061 -9.98780622 89.59490305 -9.97045898 99.2746582 C9.82954102 99.2746582 29.62954102 99.2746582 50.02954102 99.2746582 C50.11681673 83.95826851 50.11681673 83.95826851 50.17602539 68.6418457 C50.19395019 62.39372096 50.2151425 56.14572828 50.25585938 49.89770508 C50.28848488 44.85970742 50.30640085 39.82185141 50.31417274 34.78375626 C50.3197105 32.86284277 50.33052441 30.94193693 50.34673119 29.02108383 C50.36854781 26.32793246 50.37150616 23.63536437 50.37011719 20.94213867 C50.38090302 20.15019608 50.39168884 19.35825348 50.40280151 18.54231262 C50.376102 13.74960257 49.77509964 10.37744993 47.02954102 6.2746582 C44.18631576 4.23676878 41.78679829 4.01958013 38.34033203 4 C37.41579727 3.99046799 36.49126251 3.98093597 35.53871155 3.97111511 C34.05110573 3.97248222 34.05110573 3.97248222 32.53344727 3.97387695 C30.99490334 3.96744926 30.99490334 3.96744926 29.42527771 3.96089172 C27.25748431 3.95515238 25.08967165 3.95464525 22.921875 3.95898438 C19.60781958 3.96214316 16.29465789 3.93868374 12.98071289 3.91333008 C10.87329214 3.91105692 8.76586899 3.91035367 6.65844727 3.91137695 C5.66873428 3.90216721 4.6790213 3.89295746 3.65931702 3.88346863 C-3.15329184 3.91413017 -3.15329184 3.91413017 -8.97045898 7.2746582 Z M85.02954102 17.2746582 C85.02954102 22.8846582 85.02954102 28.4946582 85.02954102 34.2746582 C87.66954102 34.2746582 90.30954102 34.2746582 93.02954102 34.2746582 C94.78514043 32.51905878 94.16176021 30.23883379 94.16625977 27.90356445 C94.16239258 27.20102539 94.15852539 26.49848633 94.15454102 25.7746582 C94.1584082 25.07211914 94.16227539 24.36958008 94.16625977 23.64575195 C94.47345032 20.17037012 94.47345032 20.17037012 93.02954102 17.2746582 C90.38954102 17.2746582 87.74954102 17.2746582 85.02954102 17.2746582 Z M54.02954102 47.2746582 C54.02954102 52.2246582 54.02954102 57.1746582 54.02954102 62.2746582 C54.68954102 62.2746582 55.34954102 62.2746582 56.02954102 62.2746582 C56.02954102 57.3246582 56.02954102 52.3746582 56.02954102 47.2746582 C55.36954102 47.2746582 54.70954102 47.2746582 54.02954102 47.2746582 Z M-19.97045898 106.2746582 C-19.97045898 110.2346582 -19.97045898 114.1946582 -19.97045898 118.2746582 C6.09954102 118.2746582 32.16954102 118.2746582 59.02954102 118.2746582 C59.02954102 114.3146582 59.02954102 110.3546582 59.02954102 106.2746582 C55.29907983 102.54419701 54.17803971 102.89605551 49.03540039 102.88647461 C48.32777054 102.88121765 47.62014069 102.87596069 46.8910675 102.87054443 C44.55158425 102.85733873 42.21278121 102.86608405 39.87329102 102.8762207 C38.24808624 102.87420012 36.62288234 102.87128881 34.99768066 102.86752319 C31.59138355 102.86309909 28.18532242 102.86953354 24.77905273 102.88354492 C20.41069506 102.90063704 16.0428903 102.89079629 11.67455292 102.87282753 C8.31854072 102.86199193 4.96265981 102.86543496 1.60664368 102.87321091 C-0.00412562 102.87521354 -1.61490681 102.8727514 -3.22566223 102.86577225 C-5.47620259 102.85816123 -7.72584496 102.86975592 -9.97631836 102.88647461 C-11.25744507 102.88886139 -12.53857178 102.89124817 -13.85852051 102.89370728 C-17.30284314 102.99109476 -17.30284314 102.99109476 -19.97045898 106.2746582 Z " fill="#EFD8B6" transform="translate(26.970458984375,2.725341796875)"/>
<path d="M0 0 C14.19 0 28.38 0 43 0 C43 10.89 43 21.78 43 33 C28.81 33 14.62 33 0 33 C0 22.11 0 11.22 0 0 Z M4 4 C4 12.25 4 20.5 4 29 C5.65 29 7.3 29 9 29 C9.24234375 28.44570313 9.4846875 27.89140625 9.734375 27.3203125 C10.06953125 26.59585938 10.4046875 25.87140625 10.75 25.125 C11.07484375 24.40570313 11.3996875 23.68640625 11.734375 22.9453125 C13.27534918 20.57677811 14.34724655 19.92894254 17 19 C18.62117784 18.86088903 20.24814882 18.78040843 21.875 18.75 C25.84417048 18.45143408 27.74366033 17.83640896 30.5 14.9375 C31.7375 13.4834375 31.7375 13.4834375 33 12 C33.66 12 34.32 12 35 12 C34.42647107 15.87132028 32.51295648 18.08172796 30 21 C30.680625 21.86625 30.680625 21.86625 31.375 22.75 C32.84113516 24.7800333 33.94857784 26.73539843 35 29 C36.32 29 37.64 29 39 29 C39 20.75 39 12.5 39 4 C27.45 4 15.9 4 4 4 Z M13 27 C13 27.66 13 28.32 13 29 C18.61 29 24.22 29 30 29 C28.52360997 23.93991361 28.52360997 23.93991361 25 22 C19.05002195 21.22870655 16.6991228 22.29202553 13 27 Z " fill="#EED8B5" transform="translate(25,14)"/>
<path d="M0 0 C0.25735013 6.56242841 0.25735013 6.56242841 -1.31640625 9.23828125 C-2.26819889 11.88556362 -2.26819889 11.88556362 -1.2109375 13.81713867 C0.10320762 15.93474673 1.49050207 17.97083343 2.9375 20 C8.04760556 27.22210486 8.04760556 27.22210486 7.81640625 31 C7 33 7 33 5.31640625 33.7734375 C3 34 3 34 0.52734375 32.1640625 C-0.32730469 31.32617188 -1.18195312 30.48828125 -2.0625 29.625 C-5.58351471 26.08968498 -5.58351471 26.08968498 -10 24 C-13.46855317 28.30257681 -13.46855317 28.30257681 -13.625 33.6875 C-13.41875 34.780625 -13.2125 35.87375 -13 37 C-13.66 37.99 -14.32 38.98 -15 40 C-21.16529701 39.68383092 -25.17268433 36.50784939 -30 33 C-29.34 31.35 -28.68 29.7 -28 28 C-26.02 28 -24.04 28 -22 28 C-21.01 24.7 -20.02 21.4 -19 18 C-19.98742188 17.68546875 -20.97484375 17.3709375 -21.9921875 17.046875 C-23.28671899 16.6153645 -24.58097587 16.1830296 -25.875 15.75 C-26.52597656 15.54503906 -27.17695312 15.34007813 -27.84765625 15.12890625 C-32.67651771 13.48609771 -32.67651771 13.48609771 -34.4453125 10.828125 C-34.62835938 10.22484375 -34.81140625 9.6215625 -35 9 C-34.34 8.01 -33.68 7.02 -33 6 C-30.92456055 5.75463867 -30.92456055 5.75463867 -28.38671875 5.91796875 C-27.0090332 5.97307617 -27.0090332 5.97307617 -25.60351562 6.02929688 C-23.6705164 6.13416823 -21.73813684 6.25121997 -19.80664062 6.38085938 C-14.72771713 6.72414186 -14.72771713 6.72414186 -10.28759766 4.68603516 C-8.76548163 2.87795422 -8.76548163 2.87795422 -7 0 C-4.3333581 -1.33332095 -2.83319697 -0.67102033 0 0 Z M-6 5 C-6.50466797 6.22783203 -6.50466797 6.22783203 -7.01953125 7.48046875 C-9 10 -9 10 -10.83740234 10.41259766 C-13.13771692 10.49266699 -15.38910426 10.43505597 -17.6875 10.3125 C-18.48478516 10.28994141 -19.28207031 10.26738281 -20.10351562 10.24414062 C-22.06981334 10.18526944 -24.03514491 10.09558755 -26 10 C-23.14415227 11.90389849 -21.0688238 12.69462177 -17.8125 13.625 C-16.91144531 13.88539062 -16.01039062 14.14578125 -15.08203125 14.4140625 C-14.39496094 14.60742188 -13.70789062 14.80078125 -13 15 C-13.33 16.98 -13.66 18.96 -14 21 C-13.34 20.67 -12.68 20.34 -12 20 C-12 19.34 -12 18.68 -12 18 C-7.90694544 19.65296434 -4.41016497 21.13546142 -1 24 C-2.00907069 21.28327121 -2.93941502 19.08077998 -4.6875 16.75 C-6.60859917 12.72483984 -5.77553526 9.28880341 -5 5 C-5.33 5 -5.66 5 -6 5 Z M-15 21 C-14 23 -14 23 -14 23 Z M-23 32 C-21.02 32.99 -21.02 32.99 -19 34 C-19.33 33.34 -19.66 32.68 -20 32 C-20.99 32 -21.98 32 -23 32 Z " fill="#EFD8B6" transform="translate(60,54)"/>
</svg>
