<svg width="145" height="145" viewBox="0 0 145 145" fill="none" xmlns="http://www.w3.org/2000/svg">
<g clip-path="url(#clip0_316_1174)">
<path d="M125.54 144.521H19.3782C12.7278 144.521 6.652 141.155 3.20361 135.49C-0.244792 129.824 -0.573211 122.928 2.38256 116.934L55.6685 11.3472C58.9527 4.94305 65.439 0.919922 72.6642 0.919922C79.8894 0.919922 86.3757 4.94305 89.6599 11.4293L142.535 117.016C145.491 122.928 145.163 129.906 141.714 135.49C138.266 141.155 132.19 144.521 125.54 144.521ZM72.6642 4.20411C66.5884 4.20411 61.3337 7.40619 58.6243 12.8251L5.33833 118.412C2.87519 123.338 3.1215 129.085 5.99517 133.765C8.86883 138.445 13.8772 141.237 19.3782 141.237H125.54C131.041 141.237 136.049 138.445 138.923 133.765C141.796 129.085 142.043 123.338 139.58 118.494L86.7041 12.9072C83.9946 7.4883 78.7399 4.20411 72.6642 4.20411Z" fill="#315748"/>
<path d="M72.7463 129.989C71.8432 129.989 71.1042 129.251 71.1042 128.347V61.5142C71.1042 60.611 71.8432 59.8721 72.7463 59.8721C73.6495 59.8721 74.3884 60.611 74.3884 61.5142V128.347C74.3884 129.251 73.6495 129.989 72.7463 129.989Z" fill="#315748"/>
<path d="M27.0961 142.634L23.8119 142.388C23.8119 141.977 24.7971 131.632 32.515 126.87C37.4413 123.832 43.8454 123.75 51.5633 126.706C54.1906 124.981 62.7295 120.466 73.4852 126.788L71.8431 129.579C61.0053 123.175 53.2054 129.497 52.8769 129.744L52.138 130.4L51.2349 130.072C44.1739 127.198 38.4265 127.034 34.2392 129.661C27.9171 133.602 27.0961 142.552 27.0961 142.634Z" fill="#315748"/>
<path d="M118.561 142.632C118.561 142.632 117.658 133.518 111.335 129.659C107.148 127.114 101.483 127.278 94.4219 130.07L93.5187 130.398L92.7798 129.741C92.7798 129.741 84.6514 123.173 73.8136 129.577L72.1715 126.786C82.9272 120.381 91.4661 124.897 94.0935 126.704C101.811 123.748 108.215 123.83 113.142 126.868C120.86 131.63 121.845 141.975 121.845 142.385L118.561 142.632Z" fill="#315748"/>
<path d="M73.8958 42.8746C73.4853 42.2998 73.3211 41.643 73.239 40.9041L72.3358 33.6788C72.3358 33.6788 72.3358 33.2683 72.1716 33.1862C71.9253 33.022 71.5969 33.1862 71.5148 33.4325L71.2685 42.464C71.2685 42.464 71.1042 42.8746 71.0221 42.8746C68.1485 47.7188 68.4769 53.7124 72.8284 57.2429L73.7316 56.1755C77.0158 52.2345 77.0158 46.6514 73.8958 42.8746Z" fill="#315748"/>
<path d="M58.378 68.5738C57.4748 68.4096 56.6538 67.6707 56.3254 66.7675L52.877 57.6539C52.877 57.6539 52.3843 57.1613 52.0559 57.3255C51.7275 57.4897 51.5633 57.8181 51.7275 58.1465L55.3401 70.4623C55.3401 70.4623 55.5043 71.037 55.5043 71.1191C56.5717 78.919 62.1548 85.2411 70.119 85.3232V83.3527C70.2011 76.1275 65.1927 70.0517 58.378 68.5738Z" fill="#315748"/>
<path d="M56.9822 83.1062C55.9148 82.8599 55.0938 82.121 54.6832 81.1357L50.8243 70.8726C50.8243 70.8726 50.2496 70.2979 49.9212 70.4621C49.5927 70.6263 49.3464 71.0369 49.5106 71.3653L53.5338 85.241C53.5338 85.241 53.698 85.8978 53.698 85.9799C54.9296 94.7651 61.1695 101.826 70.1189 101.99V99.7735C70.201 91.6451 64.5358 84.8304 56.9001 83.1884L56.9822 83.1062Z" fill="#315748"/>
<path d="M88.4283 83.1062C89.4956 82.8599 90.3167 82.121 90.7272 81.1357L94.5861 70.8726C94.5861 70.8726 95.1609 70.2979 95.4893 70.4621C95.8177 70.6263 96.064 71.0369 95.8998 71.3653L91.8767 85.241C91.8767 85.241 91.7125 85.8978 91.7125 85.9799C90.4809 94.7651 84.2409 101.826 75.2915 101.99V99.7735C75.2094 91.6451 80.8746 84.8304 88.5104 83.1884L88.4283 83.1062Z" fill="#315748"/>
<path d="M87.0325 68.5738C87.9356 68.4096 88.7567 67.6707 89.0851 66.7675L92.5335 57.6539C92.5335 57.6539 93.0261 57.1613 93.3546 57.3255C93.683 57.4897 93.8472 57.8181 93.683 58.1465L90.0704 70.4623C90.0704 70.4623 89.9062 71.037 89.9062 71.1191C88.8388 78.919 83.2557 85.2411 75.2915 85.3232V83.3527C75.2094 76.1275 80.2178 70.0517 87.0325 68.5738Z" fill="#315748"/>
<path d="M60.0201 55.355C59.199 55.1908 58.5422 54.6161 58.2959 53.7951L55.3401 45.913C55.3401 45.913 54.9296 45.5025 54.6833 45.5846C54.437 45.6667 54.2727 45.9951 54.3549 46.2414L57.4748 56.915C57.4748 56.915 57.5569 57.4077 57.639 57.4898C58.6243 64.2224 63.3864 69.6413 70.2832 69.8055V68.0813C70.3653 61.8413 66.0137 56.5866 60.1843 55.355H60.0201Z" fill="#315748"/>
<path d="M85.3905 55.355C86.2115 55.1908 86.8683 54.6161 87.1146 53.7951L90.0704 45.913C90.0704 45.913 90.4809 45.5025 90.7273 45.5846C90.9736 45.6667 91.1378 45.9951 91.0557 46.2414L87.9357 56.915C87.9357 56.915 87.8536 57.4077 87.7715 57.4898C86.7862 64.2224 82.0242 69.6413 75.1274 69.8055V68.0813C75.0453 61.8413 79.3968 56.5866 85.2262 55.355H85.3905Z" fill="#315748"/>
</g>
<defs>
<clipPath id="clip0_316_1174">
<rect width="145" height="145" fill="white"/>
</clipPath>
</defs>
</svg>
