<svg width="169" height="134" viewBox="0 0 169 134" fill="none" xmlns="http://www.w3.org/2000/svg">
<path d="M100.845 84.9646C100.355 84.9646 100.028 84.6358 100.028 84.1426V46.9065C100.028 46.4133 100.355 46.0845 100.845 46.0845C101.335 46.0845 101.662 46.4133 101.662 46.9065V84.1426C101.662 84.6358 101.335 84.9646 100.845 84.9646Z" fill="#315748"/>
<path d="M101.499 35.4813C101.499 35.4813 101.172 34.7416 101.09 34.2484L100.518 29.8918C100.518 29.8918 100.518 29.6452 100.436 29.563C100.273 29.4808 100.109 29.563 100.028 29.7274L99.8642 35.1525C99.8642 35.1525 99.7825 35.3991 99.7007 35.3991C97.9845 38.2761 98.148 41.8929 100.763 44.03L101.335 43.3725C103.297 40.9887 103.297 37.7007 101.417 35.3991L101.499 35.4813Z" fill="#315748"/>
<path d="M92.2639 55.949C91.6918 55.8668 91.2832 55.4558 91.038 54.8804L88.9949 49.3731C88.9949 49.3731 88.668 49.0443 88.5046 49.1265C88.3411 49.2087 88.1777 49.4553 88.2594 49.6197L90.3842 57.0176C90.3842 57.0176 90.3842 57.3464 90.466 57.4286C91.1198 62.1139 94.4705 65.8951 99.2105 65.9773V64.7443C99.2105 60.3877 96.2684 56.771 92.1822 55.8668L92.2639 55.949Z" fill="#315748"/>
<path d="M91.4465 66.4692C90.7927 66.3048 90.3024 65.8938 90.0572 65.2362L87.7689 59.0713C87.7689 59.0713 87.442 58.7425 87.1968 58.8247C86.9517 58.9069 86.8699 59.1535 86.9517 59.4001L89.4034 67.7022L89.4851 68.1132C90.2206 73.374 93.98 77.6483 99.2921 77.7305V76.4153C99.2921 71.5656 95.9414 67.4556 91.4465 66.4692Z" fill="#315748"/>
<path d="M110.243 66.4692C110.897 66.3048 111.387 65.8938 111.632 65.2362L113.921 59.0713C113.921 59.0713 114.248 58.7425 114.493 58.8247C114.738 58.9069 114.82 59.1535 114.738 59.4001L112.286 67.7022L112.205 68.1132C111.469 73.374 107.71 77.6483 102.398 77.7305V76.4153C102.398 71.5656 105.748 67.4556 110.243 66.4692Z" fill="#315748"/>
<path d="M109.344 55.949C109.916 55.8668 110.325 55.4558 110.57 54.8804L112.613 49.3731C112.613 49.3731 112.94 49.0443 113.103 49.1265C113.267 49.2087 113.43 49.4553 113.349 49.6197L111.224 57.0176C111.224 57.0176 111.224 57.3464 111.142 57.4286C110.488 62.1139 107.138 65.8951 102.398 65.9773V64.7443C102.398 60.3877 105.34 56.771 109.426 55.8668L109.344 55.949Z" fill="#315748"/>
<path d="M93.2445 46.1674C92.7542 46.0852 92.3455 45.6742 92.1821 45.2632L90.3842 40.4956C90.3842 40.4956 90.139 40.249 89.9755 40.3312C89.8121 40.4134 89.7304 40.5778 89.8121 40.7422L91.6918 47.1538V47.4825C92.2638 51.5103 95.1242 54.7983 99.2104 54.8805V53.8119C99.2104 50.1129 96.6769 46.9072 93.1628 46.1674H93.2445Z" fill="#315748"/>
<path d="M108.363 46.1674C108.854 46.0852 109.262 45.6742 109.426 45.2632L111.224 40.4956C111.224 40.4956 111.469 40.249 111.632 40.3312C111.796 40.4134 111.878 40.5778 111.796 40.7422L109.916 47.1538V47.4825C109.344 51.5103 106.484 54.7983 102.398 54.8805V53.8119C102.398 50.1129 104.931 46.9072 108.445 46.1674H108.363Z" fill="#315748"/>
<path d="M138.193 84.9646C137.703 84.9646 137.376 84.6358 137.376 84.1426V46.9065C137.376 46.4133 137.703 46.0845 138.193 46.0845C138.683 46.0845 139.01 46.4133 139.01 46.9065V84.1426C139.01 84.6358 138.683 84.9646 138.193 84.9646Z" fill="#315748"/>
<path d="M138.847 35.4813C138.847 35.4813 138.52 34.7416 138.438 34.2484L137.866 29.8918C137.866 29.8918 137.866 29.6452 137.784 29.563C137.621 29.4808 137.457 29.563 137.376 29.7274L137.212 35.1525C137.212 35.1525 137.13 35.3991 137.049 35.3991C135.333 38.2761 135.496 41.8929 138.111 44.03L138.683 43.3725C140.645 40.9887 140.645 37.7007 138.765 35.3991L138.847 35.4813Z" fill="#315748"/>
<path d="M129.612 55.949C129.04 55.8668 128.631 55.4558 128.386 54.8804L126.343 49.3731C126.343 49.3731 126.016 49.0443 125.853 49.1265C125.689 49.2087 125.526 49.4553 125.607 49.6197L127.732 57.0176C127.732 57.0176 127.732 57.3464 127.814 57.4286C128.468 62.1139 131.818 65.8951 136.559 65.9773V64.7443C136.559 60.3877 133.616 56.771 129.53 55.8668L129.612 55.949Z" fill="#315748"/>
<path d="M128.713 66.4692C128.059 66.3048 127.569 65.8938 127.324 65.2362L125.035 59.0713C125.035 59.0713 124.708 58.7425 124.463 58.8247C124.218 58.9069 124.136 59.1535 124.218 59.4001L126.67 67.7022L126.752 68.1132C127.487 73.374 131.246 77.6483 136.559 77.7305V76.4153C136.559 71.5656 133.208 67.4556 128.713 66.4692Z" fill="#315748"/>
<path d="M147.51 66.4692C148.163 66.3048 148.654 65.8938 148.899 65.2362L151.187 59.0713C151.187 59.0713 151.514 58.7425 151.759 58.8247C152.004 58.9069 152.086 59.1535 152.004 59.4001L149.553 67.7022L149.471 68.1132C148.735 73.374 144.976 77.6483 139.664 77.7305V76.4153C139.664 71.5656 143.015 67.4556 147.51 66.4692Z" fill="#315748"/>
<path d="M146.692 55.949C147.264 55.8668 147.673 55.4558 147.918 54.8804L149.961 49.3731C149.961 49.3731 150.288 49.0443 150.452 49.1265C150.615 49.2087 150.779 49.4553 150.697 49.6197L148.572 57.0176C148.572 57.0176 148.572 57.3464 148.49 57.4286C147.836 62.1139 144.486 65.8951 139.746 65.9773V64.7443C139.746 60.3877 142.688 56.771 146.774 55.8668L146.692 55.949Z" fill="#315748"/>
<path d="M130.593 46.1674C130.102 46.0852 129.694 45.6742 129.53 45.2632L127.732 40.4956C127.732 40.4956 127.487 40.249 127.324 40.3312C127.16 40.4134 127.079 40.5778 127.16 40.7422L129.04 47.1538V47.4825C129.612 51.5103 132.472 54.7983 136.559 54.8805V53.8119C136.559 50.1129 134.025 46.9072 130.511 46.1674H130.593Z" fill="#315748"/>
<path d="M145.712 46.1674C146.202 46.0852 146.611 45.6742 146.774 45.2632L148.572 40.4956C148.572 40.4956 148.817 40.249 148.981 40.3312C149.144 40.4134 149.226 40.5778 149.144 40.7422L147.264 47.1538V47.4825C146.692 51.5103 143.832 54.7983 139.746 54.8805V53.8119C139.746 50.1129 142.279 46.9072 145.793 46.1674H145.712Z" fill="#315748"/>
<path d="M58.8385 49.6997H45.1906C43.9647 49.6997 42.8206 50.2751 42.085 51.3437L21.1636 80.5244C18.8753 83.7301 21.1636 88.0867 25.0046 88.0867H58.8385C60.1461 88.0867 61.2085 87.0181 61.2085 85.7029V52.1657C61.2085 50.8505 60.1461 49.7819 58.8385 49.7819V49.6997Z" fill="#315748"/>
<path d="M167.941 107.488H164.672V7.61573C164.672 6.38275 163.691 5.39636 162.465 5.39636H74.8565C73.6307 5.39636 72.65 6.38275 72.65 7.61573V107.488H69.381V7.61573C69.381 4.57437 71.8327 2.1084 74.8565 2.1084H162.465C165.489 2.1084 167.941 4.57437 167.941 7.61573V107.488Z" fill="#315748"/>
<path d="M72.4048 109.131H47.4788L46.9885 108.309C44.455 103.87 39.715 101.158 34.6481 101.158C29.5812 101.158 24.8411 103.87 22.3077 108.309L21.8173 109.131H1.05933V91.3762C1.05933 89.8966 1.46795 88.4171 2.36692 87.1841L35.0567 39.3442C36.0374 37.8646 37.7536 36.9604 39.5515 36.9604H72.3231V109.213L72.4048 109.131ZM49.2768 105.843H69.0541V40.2484H39.5515C38.816 40.2484 38.1622 40.5772 37.7536 41.2348L5.06382 89.0747C4.57348 89.7322 4.32831 90.6364 4.32831 91.4584V105.925H20.0194C23.2067 100.994 28.7639 97.9522 34.6481 97.9522C40.5322 97.9522 46.0895 100.994 49.2768 105.925V105.843Z" fill="#315748"/>
<path d="M34.648 133.133C25.0045 133.133 17.159 125.242 17.159 115.543C17.159 112.419 17.9762 109.378 19.529 106.748L22.3894 108.392C21.1635 110.529 20.5097 112.995 20.5097 115.543C20.5097 123.434 26.8842 129.845 34.7298 129.845C42.5753 129.845 48.9498 123.434 48.9498 115.543C48.9498 112.995 48.296 110.529 47.0701 108.392L49.9305 106.748C51.4833 109.46 52.3005 112.501 52.3005 115.543C52.3005 125.242 44.455 133.133 34.8115 133.133H34.648Z" fill="#315748"/>
<path d="M22.3077 108.31L19.4473 106.666C22.5529 101.241 28.3553 97.8706 34.6481 97.8706C40.9409 97.8706 46.6616 101.241 49.8488 106.666L46.9885 108.31C44.455 103.871 39.715 101.159 34.6481 101.159C29.5812 101.159 24.8411 103.871 22.3077 108.31Z" fill="#315748"/>
<path d="M20.8366 119.571H6.53486C3.51106 119.571 1.05933 117.105 1.05933 114.063V105.843H23.6153L22.3077 108.309C21.0818 110.446 20.428 112.912 20.428 115.461C20.428 116.2 20.428 116.94 20.5915 117.68L20.8366 119.571ZM4.3283 109.131V114.063C4.3283 115.296 5.309 116.283 6.53486 116.283H17.159C17.159 116.283 17.159 115.789 17.159 115.461C17.159 113.323 17.5677 111.104 18.3032 109.131H4.3283Z" fill="#315748"/>
<path d="M121.766 133.132C113.022 133.132 105.748 126.885 104.441 118.172L107.628 117.679C108.69 124.583 114.738 129.844 121.685 129.844C128.631 129.844 134.679 124.666 135.741 117.679L138.929 118.172C137.621 126.721 130.184 133.132 121.603 133.132H121.766Z" fill="#315748"/>
<path d="M134.107 108.31C131.573 103.871 126.833 101.159 121.766 101.159C116.7 101.159 111.959 103.871 109.426 108.31L106.566 106.666C109.671 101.241 115.474 97.8706 121.766 97.8706C128.059 97.8706 133.78 101.241 136.967 106.666L134.107 108.31Z" fill="#315748"/>
<path d="M162.465 119.571H135.578L135.905 117.68C135.986 116.94 136.068 116.2 136.068 115.461C136.068 112.912 135.414 110.446 134.189 108.309L132.799 105.843H168.022V114.063C168.022 117.105 165.571 119.571 162.547 119.571H162.465ZM139.255 116.283H162.465C163.691 116.283 164.672 115.296 164.672 114.063V109.131H138.111C138.847 111.186 139.255 113.323 139.255 115.461C139.255 115.707 139.255 116.036 139.255 116.283Z" fill="#315748"/>
<path d="M107.955 119.571H48.5413L48.7048 117.68C48.7865 116.94 48.8682 116.2 48.8682 115.461C48.8682 112.912 48.2144 110.446 46.9886 108.309L45.5992 105.843H110.897L109.508 108.309C108.282 110.446 107.628 112.995 107.628 115.461C107.628 116.2 107.628 116.94 107.792 117.68L108.118 119.571H107.955ZM52.1372 116.283H104.277C104.277 116.283 104.277 115.789 104.277 115.461C104.277 113.323 104.686 111.104 105.422 109.131H50.9931C51.7286 111.186 52.1372 113.323 52.1372 115.461C52.1372 115.707 52.1372 116.036 52.1372 116.283Z" fill="#315748"/>
<path d="M139.092 118.173L135.905 117.68C135.986 116.94 136.068 116.2 136.068 115.46C136.068 112.912 135.414 110.446 134.188 108.309L137.049 106.665C138.602 109.378 139.419 112.419 139.419 115.46C139.419 116.365 139.419 117.269 139.174 118.173H139.092Z" fill="#315748"/>
<path d="M104.441 118.173C104.277 117.269 104.196 116.365 104.196 115.46C104.196 112.337 105.013 109.295 106.566 106.665L109.426 108.309C108.2 110.446 107.546 112.994 107.546 115.46C107.546 116.2 107.546 116.94 107.71 117.68L104.522 118.173H104.441Z" fill="#315748"/>
</svg>
